<svg width="4331" height="830" viewBox="0 0 4331 830" fill="none" xmlns="http://www.w3.org/2000/svg">
<path d="M56 518.5V829H4258.5V235H4225.5V375.5H4105.5L4000 481H3914.5V163.5L3876 202V334H3822L3801.5 313.5H3685L3664.5 334H3499V444H3319V675.5H3180.5V348.5L2891 390V506H2750V533H2636V313.5L2570 247.5H2505V174L2431.5 100.5V1H2402.5V247.5H2326V748H2181V651H2037.5V323L1962 247.5H1709.5V564H1633V371.5H1604V313.5H1577V371.5H1405.5L1289.5 487.5V715H1250V574.5H1150.5V264H1049.5V303H900.5V680H805V740H685V680V477H637.5V390L594 346.5H420.5L377 390V477H327V680H232V518.5H56Z" fill="#151515"/>
<path d="M0 829H56M4331 829H4258.5M56 829V518.5H232V680H327V477H377V390L420.5 346.5H594L637.5 390V477H685V680V740H805V680H900.5V303H1049.5V264H1150.5V574.5H1250V715H1289.5V487.5L1405.5 371.5H1577V313.5H1604V371.5H1633V564H1709.5V247.5H1962L2037.5 323V651H2181V748H2326V247.5H2402.5V1H2431.5V100.5L2505 174V247.5H2570L2636 313.5V533H2750V506H2891V390L3180.5 348.5V675.5H3319V444H3499V334H3664.5L3685 313.5H3801.5L3822 334H3876V202L3914.5 163.5V481H4000L4105.5 375.5H4225.5V235H4258.5V829M56 829H4258.5" stroke="white" stroke-width="2"/>
</svg>
