<svg width="4331" height="485" viewBox="0 0 4331 485" fill="none" xmlns="http://www.w3.org/2000/svg">
<path d="M4280 238V484H123.5V234L305.5 151H392V52H562V298H731.5V213L793.5 151H843V72.5L863.5 93V151H1070.5L1132.5 213V397H1319V120L1366.5 72.5H1465.5L1513 120V275H1676.5V2H1780V103.5H2098.5V298H2301V2L2458 72.5V221.5H2619.5V329H2803.5V120H2911V287.5H3001V187.5L3051.5 238V287.5H3244V130.5H3358V221.5H3564.5V66.5L3717.5 159.5V416H3763V333H3899.5L3945 287.5V238H4073.5V180H4152V238H4280Z" fill="#151515"/>
<path d="M0 484H123.5M4330.5 484H4280M4280 484V238H4152V180H4073.5V238H3945V287.5L3899.5 333H3763V416H3717.5V159.5L3564.5 66.5V221.5H3358V130.5H3244V287.5H3051.5V238L3001 187.5V287.5H2911V120H2803.5V329H2619.5V221.5H2458V72.5L2301 2V298H2098.5V103.5H1780V2H1676.5V275H1513V120L1465.5 72.5H1366.5L1319 120V397H1132.5V213L1070.5 151H863.5V93L843 72.5V151H793.5L731.5 213V298H562V52H392V151H305.5L123.5 234V484M4280 484H123.5" stroke="white" stroke-width="2"/>
</svg>
