<svg width="1250" height="567" viewBox="0 0 1250 567" fill="none" xmlns="http://www.w3.org/2000/svg">
<mask id="path-1-inside-1_16_56" fill="white">
<path fill-rule="evenodd" clip-rule="evenodd" d="M988.537 57.0825C1008.67 22.9623 1046.34 0 1089.5 0C1149.25 0 1198.49 44.0153 1205.22 100.718C1232.73 124.501 1250 158.829 1250 197C1250 247.675 1219.56 291.579 1175.13 313.024C1177 319.536 1178 326.404 1178 333.5C1178 365.974 1157.09 393.66 1127.75 404.319C1108.7 441.488 1069.39 467 1024 467C994.073 467 966.792 455.911 946.217 437.703C927.44 450.498 904.616 458 880 458C866.28 458 853.116 455.669 840.899 451.391C824.955 456.818 807.975 460.086 790.327 460.834C758.164 505.11 705.284 534 645.5 534C614.462 534 585.285 526.213 559.901 512.529C553.02 514.78 545.656 516 538 516C514.796 516 494.268 504.795 481.759 487.615C453.595 484.235 427.296 474.789 404.206 460.621C379.625 488.706 345.673 508.38 307.228 514.764C300.157 544.691 272.741 567 240 567C221.26 567 204.265 559.692 191.831 547.83C183.098 549.258 174.136 550 165 550C73.873 550 0 476.127 0 385C0 293.873 73.873 220 165 220C166.768 220 168.529 220.028 170.284 220.083C182.859 157.967 230.326 108.508 291.344 93.0466C321.135 50.1129 370.784 22 427 22C444.873 22 462.083 24.8418 478.201 30.0983C492.991 24.8542 508.912 22 525.5 22C556.312 22 584.824 31.8484 608.06 48.5691C635.411 31.7371 667.792 22 702.5 22C751.137 22 795.206 41.1213 827.266 72.0928C828.836 72.0311 830.414 72 832 72C859.486 72 884.74 81.3539 904.617 96.9859C924.996 73.5526 954.937 58.3261 988.537 57.0825Z"/>
</mask>
<path fill-rule="evenodd" clip-rule="evenodd" d="M988.537 57.0825C1008.67 22.9623 1046.34 0 1089.5 0C1149.25 0 1198.49 44.0153 1205.22 100.718C1232.73 124.501 1250 158.829 1250 197C1250 247.675 1219.56 291.579 1175.13 313.024C1177 319.536 1178 326.404 1178 333.5C1178 365.974 1157.09 393.66 1127.75 404.319C1108.7 441.488 1069.39 467 1024 467C994.073 467 966.792 455.911 946.217 437.703C927.44 450.498 904.616 458 880 458C866.28 458 853.116 455.669 840.899 451.391C824.955 456.818 807.975 460.086 790.327 460.834C758.164 505.11 705.284 534 645.5 534C614.462 534 585.285 526.213 559.901 512.529C553.02 514.78 545.656 516 538 516C514.796 516 494.268 504.795 481.759 487.615C453.595 484.235 427.296 474.789 404.206 460.621C379.625 488.706 345.673 508.38 307.228 514.764C300.157 544.691 272.741 567 240 567C221.26 567 204.265 559.692 191.831 547.83C183.098 549.258 174.136 550 165 550C73.873 550 0 476.127 0 385C0 293.873 73.873 220 165 220C166.768 220 168.529 220.028 170.284 220.083C182.859 157.967 230.326 108.508 291.344 93.0466C321.135 50.1129 370.784 22 427 22C444.873 22 462.083 24.8418 478.201 30.0983C492.991 24.8542 508.912 22 525.5 22C556.312 22 584.824 31.8484 608.06 48.5691C635.411 31.7371 667.792 22 702.5 22C751.137 22 795.206 41.1213 827.266 72.0928C828.836 72.0311 830.414 72 832 72C859.486 72 884.74 81.3539 904.617 96.9859C924.996 73.5526 954.937 58.3261 988.537 57.0825Z" fill="#151515"/>
<path d="M988.537 57.0825L988.611 59.0811L989.704 59.0406L990.259 58.0988L988.537 57.0825ZM1205.22 100.718L1203.23 100.954L1203.32 101.724L1203.91 102.231L1205.22 100.718ZM1175.13 313.024L1174.27 311.223L1172.75 311.956L1173.21 313.575L1175.13 313.024ZM1127.75 404.319L1127.07 402.439L1126.33 402.708L1125.97 403.407L1127.75 404.319ZM946.217 437.703L947.542 436.205L946.377 435.174L945.09 436.05L946.217 437.703ZM840.899 451.391L841.561 449.503L840.909 449.275L840.255 449.497L840.899 451.391ZM790.327 460.834L790.242 458.836L789.277 458.877L788.709 459.659L790.327 460.834ZM559.901 512.529L560.85 510.768L560.095 510.361L559.279 510.628L559.901 512.529ZM481.759 487.615L483.376 486.438L482.863 485.733L481.998 485.629L481.759 487.615ZM404.206 460.621L405.252 458.917L403.813 458.034L402.701 459.304L404.206 460.621ZM307.228 514.764L306.901 512.791L305.588 513.009L305.282 514.304L307.228 514.764ZM191.831 547.83L193.211 546.382L192.491 545.695L191.508 545.856L191.831 547.83ZM170.284 220.083L170.221 222.082L171.909 222.135L172.244 220.48L170.284 220.083ZM291.344 93.0466L291.835 94.9853L292.56 94.8015L292.987 94.1868L291.344 93.0466ZM478.201 30.0983L477.581 31.9998L478.228 32.2108L478.87 31.9833L478.201 30.0983ZM608.06 48.5691L606.892 50.1925L607.973 50.9708L609.108 50.2724L608.06 48.5691ZM827.266 72.0928L825.877 73.5312L826.491 74.1248L827.345 74.0912L827.266 72.0928ZM904.617 96.9859L903.381 98.558L904.877 99.7347L906.126 98.2983L904.617 96.9859ZM1089.5 -2C1045.62 -2 1007.3 21.349 986.814 56.0661L990.259 58.0988C1010.04 24.5757 1047.07 2 1089.5 2V-2ZM1207.2 100.483C1200.36 42.7515 1150.24 -2 1089.5 -2V2C1148.26 2 1196.63 45.2792 1203.23 100.954L1207.2 100.483ZM1252 197C1252 158.206 1234.44 123.339 1206.53 99.2053L1203.91 102.231C1231.01 125.662 1248 159.452 1248 197H1252ZM1176 314.825C1221.05 293.076 1252 248.51 1252 197H1248C1248 246.84 1218.06 290.081 1174.27 311.223L1176 314.825ZM1173.21 313.575C1175.03 319.91 1176 326.592 1176 333.5H1180C1180 326.215 1178.97 319.162 1177.06 312.473L1173.21 313.575ZM1176 333.5C1176 365.087 1155.66 392.052 1127.07 402.439L1128.43 406.199C1158.52 395.269 1180 366.862 1180 333.5H1176ZM1024 469C1070.16 469 1110.14 443.057 1129.53 405.231L1125.97 403.407C1107.25 439.919 1068.63 465 1024 465V469ZM944.891 439.201C965.822 457.723 993.571 469 1024 469V465C994.574 465 967.762 454.099 947.542 436.205L944.891 439.201ZM880 460C905.027 460 928.243 452.371 947.343 439.356L945.09 436.05C926.638 448.625 904.204 456 880 456V460ZM840.238 453.278C852.665 457.63 866.052 460 880 460V456C866.508 456 853.567 453.708 841.561 449.503L840.238 453.278ZM790.412 462.833C808.252 462.076 825.421 458.773 841.544 453.284L840.255 449.497C824.489 454.864 807.698 458.096 790.242 458.836L790.412 462.833ZM645.5 536C705.939 536 759.415 506.791 791.945 462.01L788.709 459.659C756.913 503.43 704.628 532 645.5 532V536ZM558.952 514.289C584.621 528.128 614.124 536 645.5 536V532C614.8 532 585.948 524.299 560.85 510.768L558.952 514.289ZM538 518C545.869 518 553.443 516.746 560.523 514.43L559.279 510.628C552.597 512.814 545.442 514 538 514V518ZM480.142 488.792C493.018 506.476 514.141 518 538 518V514C515.452 514 495.518 503.114 483.376 486.438L480.142 488.792ZM403.16 462.326C426.49 476.641 453.063 486.185 481.521 489.601L481.998 485.629C454.126 482.284 428.102 472.937 405.252 458.917L403.16 462.326ZM307.556 516.737C346.471 510.275 380.835 490.36 405.711 461.939L402.701 459.304C378.415 487.052 344.874 506.486 306.901 512.791L307.556 516.737ZM240 569C273.661 569 301.888 546.061 309.175 515.224L305.282 514.304C298.425 543.321 271.822 565 240 565V569ZM190.45 549.277C203.246 561.484 220.732 569 240 569V565C221.789 565 205.284 557.9 193.211 546.382L190.45 549.277ZM165 552C174.244 552 183.315 551.249 192.153 549.803L191.508 545.856C182.882 547.266 174.027 548 165 548V552ZM-2 385C-2 477.232 72.7684 552 165 552V548C74.9776 548 2 475.022 2 385H-2ZM165 218C72.7684 218 -2 292.768 -2 385H2C2 294.978 74.9776 222 165 222V218ZM170.347 218.084C168.571 218.028 166.789 218 165 218V222C166.747 222 168.487 222.027 170.221 222.082L170.347 218.084ZM290.852 91.1079C229.093 106.758 181.052 156.813 168.324 219.686L172.244 220.48C184.666 159.121 231.559 110.259 291.835 94.9853L290.852 91.1079ZM427 20C370.101 20 319.849 48.4572 289.7 91.9064L292.987 94.1868C322.42 51.7686 371.468 24 427 24V20ZM478.821 28.1969C462.505 22.8759 445.086 20 427 20V24C444.66 24 461.66 26.8078 477.581 31.9998L478.821 28.1969ZM525.5 20C508.682 20 492.535 22.8942 477.533 28.2133L478.87 31.9833C493.448 26.8143 509.143 24 525.5 24V20ZM609.228 46.9458C585.664 29.9883 556.745 20 525.5 20V24C555.879 24 583.985 33.7085 606.892 50.1925L609.228 46.9458ZM702.5 20C667.414 20 634.671 29.8442 607.012 46.8658L609.108 50.2724C636.151 33.6301 668.171 24 702.5 24V20ZM828.656 70.6544C796.233 39.3327 751.67 20 702.5 20V24C750.605 24 794.179 42.9099 825.877 73.5312L828.656 70.6544ZM832 70C830.388 70 828.784 70.0316 827.188 70.0943L827.345 74.0912C828.889 74.0306 830.441 74 832 74V70ZM905.854 95.4138C885.633 79.5121 859.947 70 832 70V74C859.026 74 883.847 83.1958 903.381 98.558L905.854 95.4138ZM988.463 55.0838C954.296 56.3485 923.841 71.8337 903.108 95.6734L906.126 98.2983C926.152 75.2715 955.578 60.3038 988.611 59.0811L988.463 55.0838Z" fill="white" mask="url(#path-1-inside-1_16_56)"/>
</svg>
