<svg width="1190" height="495" viewBox="0 0 1190 495" fill="none" xmlns="http://www.w3.org/2000/svg">
<mask id="path-1-inside-1_17_78" fill="white">
<path fill-rule="evenodd" clip-rule="evenodd" d="M555 0C608.71 0 657.296 21.9396 692.284 57.3458C699.562 56.4576 706.976 56 714.5 56C763.137 56 807.206 75.1213 839.266 106.093C840.836 106.031 842.414 106 844 106C871.486 106 896.74 115.354 916.617 130.986C937.894 106.52 969.595 91 1005 91C1050.05 91 1089.1 116.128 1108.32 152.841C1147.7 175.646 1174 216.898 1174 264C1174 280.753 1170.67 296.766 1164.61 311.471C1180.2 325.288 1190 345.272 1190 367.5C1190 409.198 1155.53 443 1113 443C1104.46 443 1096.24 441.637 1088.57 439.12C1059.68 463.976 1022.1 479 981 479C952.594 479 925.864 471.822 902.526 459.18C872.603 481.645 835.147 495 794.5 495C735.816 495 683.784 467.164 651.469 424.262C619.991 452.068 578.269 469 532.5 469C512.435 469 493.147 465.746 475.159 459.747C464.23 466.857 451.109 471 437 471C415.858 471 396.936 461.698 384.279 447.049C371.388 450.283 357.894 452 344 452C332.73 452 321.724 450.87 311.088 448.717C295.757 454.715 279.309 458.485 262.142 459.63C241.005 481.415 211.124 495 178 495C159.295 495 141.624 490.668 125.978 482.974C62.8012 481.661 12 431.136 12 369C12 362.233 12.6025 355.604 13.7579 349.161C4.97992 333.183 0 314.911 0 295.5C0 232.816 51.935 182 116 182C120.739 182 125.412 182.278 130.002 182.818C157.98 152.655 197.099 132.972 240.815 130.309C253.328 113.172 273.83 102 297 102C305.297 102 313.252 103.433 320.621 106.059C345.945 79.9827 379.809 62.2459 417.7 57.3622C452.689 21.9464 501.282 0 555 0Z"/>
</mask>
<path fill-rule="evenodd" clip-rule="evenodd" d="M555 0C608.71 0 657.296 21.9396 692.284 57.3458C699.562 56.4576 706.976 56 714.5 56C763.137 56 807.206 75.1213 839.266 106.093C840.836 106.031 842.414 106 844 106C871.486 106 896.74 115.354 916.617 130.986C937.894 106.52 969.595 91 1005 91C1050.05 91 1089.1 116.128 1108.32 152.841C1147.7 175.646 1174 216.898 1174 264C1174 280.753 1170.67 296.766 1164.61 311.471C1180.2 325.288 1190 345.272 1190 367.5C1190 409.198 1155.53 443 1113 443C1104.46 443 1096.24 441.637 1088.57 439.12C1059.68 463.976 1022.1 479 981 479C952.594 479 925.864 471.822 902.526 459.18C872.603 481.645 835.147 495 794.5 495C735.816 495 683.784 467.164 651.469 424.262C619.991 452.068 578.269 469 532.5 469C512.435 469 493.147 465.746 475.159 459.747C464.23 466.857 451.109 471 437 471C415.858 471 396.936 461.698 384.279 447.049C371.388 450.283 357.894 452 344 452C332.73 452 321.724 450.87 311.088 448.717C295.757 454.715 279.309 458.485 262.142 459.63C241.005 481.415 211.124 495 178 495C159.295 495 141.624 490.668 125.978 482.974C62.8012 481.661 12 431.136 12 369C12 362.233 12.6025 355.604 13.7579 349.161C4.97992 333.183 0 314.911 0 295.5C0 232.816 51.935 182 116 182C120.739 182 125.412 182.278 130.002 182.818C157.98 152.655 197.099 132.972 240.815 130.309C253.328 113.172 273.83 102 297 102C305.297 102 313.252 103.433 320.621 106.059C345.945 79.9827 379.809 62.2459 417.7 57.3622C452.689 21.9464 501.282 0 555 0Z" fill="#151515"/>
<path d="M692.284 57.3458L690.862 58.7516L691.552 59.45L692.526 59.331L692.284 57.3458ZM839.266 106.093L837.877 107.531L838.491 108.125L839.345 108.091L839.266 106.093ZM916.617 130.986L915.381 132.558L916.877 133.735L918.126 132.298L916.617 130.986ZM1108.32 152.841L1106.54 153.769L1106.81 154.282L1107.31 154.572L1108.32 152.841ZM1164.61 311.471L1162.76 310.709L1162.22 312.025L1163.29 312.968L1164.61 311.471ZM1088.57 439.12L1089.19 437.22L1088.12 436.868L1087.26 437.604L1088.57 439.12ZM902.526 459.18L903.478 457.421L902.35 456.811L901.325 457.581L902.526 459.18ZM651.469 424.262L653.067 423.059L651.766 421.332L650.145 422.763L651.469 424.262ZM475.159 459.747L475.792 457.85L474.877 457.545L474.068 458.071L475.159 459.747ZM384.279 447.049L385.792 445.741L384.987 444.809L383.792 445.109L384.279 447.049ZM311.088 448.717L311.485 446.757L310.908 446.64L310.36 446.855L311.088 448.717ZM262.142 459.63L262.009 457.634L261.242 457.685L260.707 458.237L262.142 459.63ZM125.978 482.974L126.86 481.179L126.462 480.983L126.019 480.974L125.978 482.974ZM13.7579 349.161L15.7265 349.514L15.8513 348.818L15.5108 348.198L13.7579 349.161ZM130.002 182.818L129.768 184.805L130.777 184.924L131.468 184.179L130.002 182.818ZM240.815 130.309L240.936 132.306L241.875 132.248L242.43 131.489L240.815 130.309ZM320.621 106.059L319.95 107.943L321.16 108.374L322.056 107.452L320.621 106.059ZM417.7 57.3622L417.955 59.3458L418.638 59.2577L419.122 58.7678L417.7 57.3622ZM693.707 55.94C658.358 20.1692 609.266 -2 555 -2V2C608.154 2 656.233 23.71 690.862 58.7516L693.707 55.94ZM714.5 54C706.895 54 699.4 54.4625 692.042 55.3605L692.526 59.331C699.724 58.4526 707.057 58 714.5 58V54ZM840.656 104.654C808.233 73.3327 763.67 54 714.5 54V58C762.605 58 806.179 76.9099 837.877 107.531L840.656 104.654ZM844 104C842.388 104 840.784 104.032 839.188 104.094L839.345 108.091C840.889 108.031 842.441 108 844 108V104ZM917.854 129.414C897.633 113.512 871.947 104 844 104V108C871.026 108 895.847 117.196 915.381 132.558L917.854 129.414ZM1005 89C969 89 936.755 104.783 915.108 129.673L918.126 132.298C939.034 108.257 970.19 93 1005 93V89ZM1110.09 151.914C1090.54 114.553 1050.81 89 1005 89V93C1049.29 93 1087.67 117.704 1106.54 153.769L1110.09 151.914ZM1176 264C1176 216.123 1149.26 174.241 1109.32 151.111L1107.31 154.572C1146.13 177.051 1172 217.672 1172 264H1176ZM1166.46 312.233C1172.62 297.291 1176 281.02 1176 264H1172C1172 280.485 1168.73 296.24 1162.76 310.709L1166.46 312.233ZM1163.29 312.968C1178.47 326.426 1188 345.875 1188 367.5H1192C1192 344.669 1181.93 324.149 1165.94 309.975L1163.29 312.968ZM1188 367.5C1188 408.056 1154.46 441 1113 441V445C1156.59 445 1192 410.339 1192 367.5H1188ZM1113 441C1104.67 441 1096.67 439.671 1089.19 437.22L1087.95 441.021C1095.82 443.602 1104.25 445 1113 445V441ZM981 481C1022.59 481 1060.64 465.792 1089.87 440.636L1087.26 437.604C1058.73 462.159 1021.6 477 981 477V481ZM901.573 460.939C925.196 473.735 952.253 481 981 481V477C952.934 477 926.531 469.909 903.478 457.421L901.573 460.939ZM794.5 497C835.591 497 873.466 483.498 903.726 460.779L901.325 457.581C871.739 479.793 834.703 493 794.5 493V497ZM649.872 425.466C682.555 468.856 735.173 497 794.5 497V493C736.46 493 685.013 465.471 653.067 423.059L649.872 425.466ZM532.5 471C578.769 471 620.96 453.881 652.793 425.761L650.145 422.763C619.023 450.255 577.768 467 532.5 467V471ZM474.526 461.645C492.716 467.71 512.217 471 532.5 471V467C512.652 467 493.578 463.781 475.792 457.85L474.526 461.645ZM437 473C451.506 473 465.003 468.74 476.25 461.424L474.068 458.071C463.456 464.975 450.713 469 437 469V473ZM382.766 448.356C395.792 463.433 415.261 473 437 473V469C416.455 469 398.08 459.963 385.792 445.741L382.766 448.356ZM344 454C358.06 454 371.716 452.262 384.766 448.988L383.792 445.109C371.059 448.303 357.729 450 344 450V454ZM310.691 450.678C321.457 452.857 332.596 454 344 454V450C332.864 450 321.99 448.884 311.485 446.757L310.691 450.678ZM262.275 461.625C279.649 460.467 296.298 456.651 311.817 450.58L310.36 446.855C295.216 452.779 278.969 456.503 262.009 457.634L262.275 461.625ZM178 497C211.68 497 242.075 483.185 263.578 461.022L260.707 458.237C239.936 479.646 210.568 493 178 493V497ZM125.095 484.769C141.011 492.595 158.983 497 178 497V493C159.606 493 142.237 488.741 126.86 481.179L125.095 484.769ZM10 369C10 432.266 61.7137 483.639 125.936 484.973L126.019 480.974C63.8887 479.683 14 430.006 14 369H10ZM11.7893 348.808C10.6131 355.367 10 362.114 10 369H14C14 362.352 14.5919 355.841 15.7265 349.514L11.7893 348.808ZM-2 295.5C-2 315.257 3.06978 333.86 12.005 350.124L15.5108 348.198C6.89006 332.506 2 314.564 2 295.5H-2ZM116 180C50.8717 180 -2 231.67 -2 295.5H2C2 233.961 52.9982 184 116 184V180ZM130.236 180.832C125.568 180.283 120.817 180 116 180V184C120.661 184 125.255 184.273 129.768 184.805L130.236 180.832ZM240.693 128.313C196.444 131.008 156.85 150.933 128.536 181.458L131.468 184.179C159.11 154.378 197.753 134.935 240.936 132.306L240.693 128.313ZM297 100C273.176 100 252.08 111.49 239.199 129.13L242.43 131.489C254.576 114.854 274.485 104 297 104V100ZM321.292 104.175C313.711 101.473 305.529 100 297 100V104C305.066 104 312.794 105.392 319.95 107.943L321.292 104.175ZM417.444 55.3786C379.09 60.322 344.814 78.276 319.186 104.666L322.056 107.452C347.075 81.6894 380.528 64.1697 417.955 59.3458L417.444 55.3786ZM555 -2C500.726 -2 451.627 20.1761 416.277 55.9566L419.122 58.7678C453.752 23.7167 501.838 2 555 2V-2Z" fill="white" mask="url(#path-1-inside-1_17_78)"/>
</svg>
