<svg width="1247" height="512" viewBox="0 0 1247 512" fill="none" xmlns="http://www.w3.org/2000/svg">
<mask id="path-1-inside-1_16_54" fill="white">
<path fill-rule="evenodd" clip-rule="evenodd" d="M808.327 438.834C776.164 483.11 723.284 512 663.5 512C632.462 512 603.285 504.213 577.901 490.529C571.02 492.78 563.656 494 556 494C532.796 494 512.268 482.795 499.759 465.615C471.595 462.235 445.296 452.789 422.206 438.621C391.962 473.177 347.529 495 298 495C248.538 495 204.16 473.236 173.918 438.763C170.965 438.92 167.992 439 165 439C73.873 439 0 365.127 0 274C0 182.873 73.873 109 165 109C166.73 109 168.454 109.027 170.172 109.08C181.604 100.857 195.722 96 211 96C223.055 96 234.387 99.0241 244.249 104.339C262.9 88.7497 285.048 77.2031 309.344 71.0466C339.135 28.1129 388.784 0 445 0C462.873 0 480.083 2.84184 496.201 8.09833C510.991 2.85422 526.912 0 543.5 0C574.312 0 602.824 9.84841 626.06 26.5691C653.411 9.73712 685.792 0 720.5 0C764.656 0 805.046 15.7599 836.104 41.8389C844.43 39.9811 853.098 39 862 39C923.272 39 973.448 85.4814 977.707 144.372C1002.62 149.434 1024.6 162.313 1040.86 180.27C1045.44 179.436 1050.17 179 1055 179C1062.45 179 1069.66 180.038 1076.47 181.974C1092.62 173.688 1111 169 1130.5 169C1194.84 169 1247 220.04 1247 283C1247 317.094 1231.71 347.692 1207.46 368.583C1200.34 403.053 1169.26 429 1132 429C1130.89 429 1129.78 428.977 1128.68 428.931C1107.43 452.288 1076.47 467 1042 467C1004.98 467 972.005 450.029 950.766 423.605C934.937 431.529 917.002 436 898 436C884.28 436 871.116 433.669 858.899 429.391C842.955 434.818 825.975 438.086 808.327 438.834Z"/>
</mask>
<path fill-rule="evenodd" clip-rule="evenodd" d="M808.327 438.834C776.164 483.11 723.284 512 663.5 512C632.462 512 603.285 504.213 577.901 490.529C571.02 492.78 563.656 494 556 494C532.796 494 512.268 482.795 499.759 465.615C471.595 462.235 445.296 452.789 422.206 438.621C391.962 473.177 347.529 495 298 495C248.538 495 204.16 473.236 173.918 438.763C170.965 438.92 167.992 439 165 439C73.873 439 0 365.127 0 274C0 182.873 73.873 109 165 109C166.73 109 168.454 109.027 170.172 109.08C181.604 100.857 195.722 96 211 96C223.055 96 234.387 99.0241 244.249 104.339C262.9 88.7497 285.048 77.2031 309.344 71.0466C339.135 28.1129 388.784 0 445 0C462.873 0 480.083 2.84184 496.201 8.09833C510.991 2.85422 526.912 0 543.5 0C574.312 0 602.824 9.84841 626.06 26.5691C653.411 9.73712 685.792 0 720.5 0C764.656 0 805.046 15.7599 836.104 41.8389C844.43 39.9811 853.098 39 862 39C923.272 39 973.448 85.4814 977.707 144.372C1002.62 149.434 1024.6 162.313 1040.86 180.27C1045.44 179.436 1050.17 179 1055 179C1062.45 179 1069.66 180.038 1076.47 181.974C1092.62 173.688 1111 169 1130.5 169C1194.84 169 1247 220.04 1247 283C1247 317.094 1231.71 347.692 1207.46 368.583C1200.34 403.053 1169.26 429 1132 429C1130.89 429 1129.78 428.977 1128.68 428.931C1107.43 452.288 1076.47 467 1042 467C1004.98 467 972.005 450.029 950.766 423.605C934.937 431.529 917.002 436 898 436C884.28 436 871.116 433.669 858.899 429.391C842.955 434.818 825.975 438.086 808.327 438.834Z" fill="#151515"/>
<path d="M808.327 438.834L808.242 436.836L807.277 436.877L806.709 437.659L808.327 438.834ZM577.901 490.529L578.85 488.768L578.095 488.361L577.279 488.628L577.901 490.529ZM499.759 465.615L501.376 464.438L500.863 463.733L499.998 463.629L499.759 465.615ZM422.206 438.621L423.252 436.917L421.813 436.034L420.701 437.304L422.206 438.621ZM173.918 438.763L175.422 437.444L174.781 436.714L173.812 436.766L173.918 438.763ZM170.172 109.08L170.11 111.079L170.788 111.099L171.339 110.703L170.172 109.08ZM244.249 104.339L243.3 106.1L244.492 106.742L245.531 105.874L244.249 104.339ZM309.344 71.0466L309.835 72.9853L310.56 72.8016L310.987 72.1868L309.344 71.0466ZM496.201 8.09833L495.581 9.99977L496.228 10.2108L496.87 9.98334L496.201 8.09833ZM626.06 26.5691L624.892 28.1925L625.973 28.9708L627.108 28.2724L626.06 26.5691ZM836.104 41.8389L834.818 43.3705L835.575 44.0061L836.539 43.7909L836.104 41.8389ZM977.707 144.372L975.712 144.517L975.822 146.03L977.309 146.332L977.707 144.372ZM1040.86 180.27L1039.38 181.612L1040.12 182.437L1041.22 182.238L1040.86 180.27ZM1076.47 181.974L1075.93 183.898L1076.68 184.114L1077.38 183.754L1076.47 181.974ZM1207.46 368.583L1206.16 367.068L1205.64 367.512L1205.5 368.178L1207.46 368.583ZM1128.68 428.931L1128.76 426.933L1127.83 426.894L1127.2 427.585L1128.68 428.931ZM950.766 423.605L952.325 422.352L951.314 421.094L949.871 421.816L950.766 423.605ZM858.899 429.391L859.561 427.503L858.909 427.275L858.255 427.497L858.899 429.391ZM663.5 514C723.939 514 777.415 484.791 809.945 440.01L806.709 437.659C774.913 481.43 722.628 510 663.5 510V514ZM576.952 492.289C602.621 506.128 632.124 514 663.5 514V510C632.8 510 603.948 502.299 578.85 488.768L576.952 492.289ZM556 496C563.869 496 571.443 494.746 578.523 492.43L577.279 488.628C570.597 490.815 563.442 492 556 492V496ZM498.142 466.792C511.018 484.476 532.141 496 556 496V492C533.452 492 513.518 481.114 501.376 464.438L498.142 466.792ZM421.16 440.326C444.49 454.641 471.063 464.185 499.521 467.601L499.998 463.629C472.126 460.284 446.102 450.937 423.252 436.917L421.16 440.326ZM298 497C348.13 497 393.103 474.909 423.711 439.939L420.701 437.304C390.82 471.444 346.929 493 298 493V497ZM172.415 440.082C203.02 474.97 247.938 497 298 497V493C249.138 493 205.3 471.503 175.422 437.444L172.415 440.082ZM165 441C168.027 441 171.036 440.919 174.024 440.76L173.812 436.766C170.894 436.921 167.956 437 165 437V441ZM-2 274C-2 366.232 72.7684 441 165 441V437C74.9776 437 2 364.022 2 274H-2ZM165 107C72.7684 107 -2 181.768 -2 274H2C2 183.978 74.9776 111 165 111V107ZM170.233 107.08C168.495 107.027 166.751 107 165 107V111C166.71 111 168.413 111.026 170.11 111.079L170.233 107.08ZM211 94C195.293 94 180.768 98.9952 169.004 107.456L171.339 110.703C182.44 102.719 196.152 98 211 98V94ZM245.198 102.579C235.051 97.1095 223.393 94 211 94V98C222.717 98 233.724 100.939 243.3 106.1L245.198 102.579ZM308.852 69.1079C284.259 75.3398 261.843 87.0273 242.966 102.805L245.531 105.874C263.958 90.4721 285.837 79.0665 309.835 72.9853L308.852 69.1079ZM445 -2C388.101 -2 337.849 26.4572 307.7 69.9064L310.987 72.1868C340.42 29.7686 389.468 2 445 2V-2ZM496.821 6.19688C480.505 0.875909 463.086 -2 445 -2V2C462.66 2 479.66 4.80778 495.581 9.99977L496.821 6.19688ZM543.5 -2C526.681 -2 510.535 0.894172 495.533 6.21332L496.87 9.98334C511.448 4.81427 527.143 2 543.5 2V-2ZM627.228 24.9458C603.664 7.98831 574.745 -2 543.5 -2V2C573.879 2 601.985 11.7085 624.892 28.1925L627.228 24.9458ZM720.5 -2C685.414 -2 652.671 7.8442 625.012 24.8658L627.108 28.2724C654.151 11.6301 686.171 2 720.5 2V-2ZM837.39 40.3072C805.981 13.9339 765.139 -2 720.5 -2V2C764.173 2 804.11 17.5858 834.818 43.3705L837.39 40.3072ZM862 37C852.951 37 844.137 37.9974 835.668 39.8869L836.539 43.7909C844.724 41.9648 853.245 41 862 41V37ZM979.702 144.228C975.366 84.2622 924.291 37 862 37V41C922.253 41 971.531 86.7006 975.712 144.517L979.702 144.228ZM1042.34 178.928C1025.8 160.66 1003.44 147.56 978.105 142.412L977.309 146.332C1001.8 151.308 1023.4 163.967 1039.38 181.612L1042.34 178.928ZM1055 177C1050.05 177 1045.2 177.447 1040.5 178.303L1041.22 182.238C1045.68 181.425 1050.29 181 1055 181V177ZM1077.02 180.051C1070.03 178.064 1062.64 177 1055 177V181C1062.27 181 1069.29 182.012 1075.93 183.898L1077.02 180.051ZM1130.5 167C1110.68 167 1091.98 171.766 1075.56 180.195L1077.38 183.754C1093.26 175.609 1111.32 171 1130.5 171V167ZM1249 283C1249 218.894 1195.9 167 1130.5 167V171C1193.78 171 1245 221.185 1245 283H1249ZM1208.77 370.098C1233.43 348.849 1249 317.708 1249 283H1245C1245 316.48 1229.98 346.535 1206.16 367.068L1208.77 370.098ZM1205.5 368.178C1198.57 401.712 1168.32 427 1132 427V431C1170.2 431 1202.1 404.395 1209.42 368.988L1205.5 368.178ZM1132 427C1130.91 427 1129.83 426.977 1128.76 426.933L1128.59 430.929C1129.72 430.976 1130.86 431 1132 431V427ZM1042 469C1077.05 469 1108.54 454.039 1130.16 430.277L1127.2 427.585C1106.32 450.537 1075.89 465 1042 465V469ZM949.207 424.858C970.815 451.742 1004.35 469 1042 469V465C1005.6 465 973.195 448.317 952.325 422.352L949.207 424.858ZM898 438C917.319 438 935.56 433.454 951.662 425.393L949.871 421.816C934.315 429.604 916.686 434 898 434V438ZM858.238 431.278C870.665 435.63 884.052 438 898 438V434C884.508 434 871.567 431.708 859.561 427.503L858.238 431.278ZM808.412 440.833C826.252 440.076 843.421 436.773 859.544 431.284L858.255 427.497C842.489 432.864 825.698 436.096 808.242 436.836L808.412 440.833Z" fill="white" mask="url(#path-1-inside-1_16_54)"/>
</svg>
