<svg fill="none" xmlns="http://www.w3.org/2000/svg" stroke-width="2">
<mask id="path-1-inside-1_2_41" fill="white">
<path fill-rule="evenodd" clip-rule="evenodd" d="M412.336 0C443.546 0 471.586 13.5733 490.874 35.1388C503.877 21.4363 522.262 12.8915 542.643 12.8915C582.053 12.8915 614 44.8389 614 84.2481C614 97.6682 610.295 110.223 603.853 120.946C610.295 131.668 614 144.223 614 157.643C614 197.053 582.053 229 542.643 229C538.576 229 534.588 228.66 530.707 228.006C512.795 260.589 478.144 282.672 438.336 282.672C424.281 282.672 410.868 279.919 398.608 274.923C379.369 295.68 351.87 308.672 321.336 308.672C277.981 308.672 240.743 282.479 224.584 245.054C205.541 263.978 179.304 275.672 150.336 275.672C130.47 275.672 111.889 270.172 96.0312 260.613C88.7122 263.089 80.8708 264.432 72.7158 264.432C32.556 264.432 0 231.876 0 191.716C0 156.79 24.6226 127.616 57.4558 120.604C75.2145 87.5069 110.147 65 150.336 65C177.498 65 202.259 75.281 220.94 92.1638C222.446 92.0552 223.967 92 225.5 92C243.15 92 259.091 99.316 270.456 111.081C281.618 104.912 294.019 100.709 307.191 98.9416C310.496 43.7437 356.308 0 412.336 0Z"/>
</mask>
<path fill-rule="evenodd" clip-rule="evenodd" d="M412.336 0C443.546 0 471.586 13.5733 490.874 35.1388C503.877 21.4363 522.262 12.8915 542.643 12.8915C582.053 12.8915 614 44.8389 614 84.2481C614 97.6682 610.295 110.223 603.853 120.946C610.295 131.668 614 144.223 614 157.643C614 197.053 582.053 229 542.643 229C538.576 229 534.588 228.66 530.707 228.006C512.795 260.589 478.144 282.672 438.336 282.672C424.281 282.672 410.868 279.919 398.608 274.923C379.369 295.68 351.87 308.672 321.336 308.672C277.981 308.672 240.743 282.479 224.584 245.054C205.541 263.978 179.304 275.672 150.336 275.672C130.47 275.672 111.889 270.172 96.0312 260.613C88.7122 263.089 80.8708 264.432 72.7158 264.432C32.556 264.432 0 231.876 0 191.716C0 156.79 24.6226 127.616 57.4558 120.604C75.2145 87.5069 110.147 65 150.336 65C177.498 65 202.259 75.281 220.94 92.1638C222.446 92.0552 223.967 92 225.5 92C243.15 92 259.091 99.316 270.456 111.081C281.618 104.912 294.019 100.709 307.191 98.9416C310.496 43.7437 356.308 0 412.336 0Z" fill="#151515"/>
<path d="M490.874 35.1388L489.383 36.4722L490.831 38.0902L492.325 36.5155L490.874 35.1388ZM603.853 120.946L602.138 119.916L601.519 120.946L602.138 121.976L603.853 120.946ZM530.707 228.006L531.039 226.034L529.638 225.798L528.954 227.043L530.707 228.006ZM398.608 274.923L399.363 273.071L398.082 272.549L397.142 273.563L398.608 274.923ZM224.584 245.054L226.42 244.262L225.257 241.566L223.174 243.636L224.584 245.054ZM96.0312 260.613L97.0638 258.9L96.2692 258.421L95.3903 258.719L96.0312 260.613ZM57.4558 120.604L57.8735 122.56L58.7799 122.366L59.2181 121.549L57.4558 120.604ZM220.94 92.1638L219.599 93.6476L220.232 94.22L221.084 94.1586L220.94 92.1638ZM270.456 111.081L269.018 112.47L270.082 113.573L271.423 112.831L270.456 111.081ZM307.191 98.9416L307.457 100.924L309.089 100.705L309.187 99.0611L307.191 98.9416ZM492.365 33.8055C472.713 11.8337 444.139 -2 412.336 -2V2C442.953 2 470.458 15.3129 489.383 36.4722L492.365 33.8055ZM542.643 10.8915C521.691 10.8915 502.788 19.6782 489.423 33.7622L492.325 36.5155C504.966 23.1943 522.833 14.8915 542.643 14.8915V10.8915ZM616 84.2481C616 43.7343 583.157 10.8915 542.643 10.8915V14.8915C580.948 14.8915 612 45.9435 612 84.2481H616ZM605.567 121.976C612.191 110.951 616 98.0412 616 84.2481H612C612 97.2953 608.399 109.495 602.138 119.916L605.567 121.976ZM616 157.643C616 143.85 612.191 130.941 605.567 119.916L602.138 121.976C608.399 132.396 612 144.596 612 157.643H616ZM542.643 231C583.157 231 616 198.157 616 157.643H612C612 195.948 580.948 227 542.643 227V231ZM530.374 229.978C534.365 230.65 538.464 231 542.643 231V227C538.688 227 534.811 226.669 531.039 226.034L530.374 229.978ZM438.336 284.672C478.903 284.672 514.21 262.166 532.459 228.969L528.954 227.043C511.379 259.012 477.386 280.672 438.336 280.672V284.672ZM397.854 276.775C410.349 281.867 424.017 284.672 438.336 284.672V280.672C424.544 280.672 411.387 277.971 399.363 273.071L397.854 276.775ZM321.336 310.672C352.45 310.672 380.474 297.431 400.075 276.283L397.142 273.563C378.265 293.929 351.29 306.672 321.336 306.672V310.672ZM222.748 245.847C239.212 283.978 277.154 310.672 321.336 310.672V306.672C278.807 306.672 242.274 280.98 226.42 244.262L222.748 245.847ZM150.336 277.672C179.853 277.672 206.591 265.754 225.994 246.473L223.174 243.636C204.491 262.203 178.755 273.672 150.336 273.672V277.672ZM94.9987 262.326C111.159 272.068 130.096 277.672 150.336 277.672V273.672C130.844 273.672 112.618 268.277 97.0638 258.9L94.9987 262.326ZM95.3903 258.719C88.2751 261.126 80.65 262.432 72.7158 262.432V266.432C81.0915 266.432 89.1494 265.053 96.6721 262.508L95.3903 258.719ZM72.7158 262.432C33.6605 262.432 2 230.771 2 191.716H-2C-2 232.98 31.4514 266.432 72.7158 266.432V262.432ZM2 191.716C2 157.753 25.944 129.378 57.8735 122.56L57.0381 118.648C23.3012 125.853 -2 155.827 -2 191.716H2ZM150.336 63C109.381 63 73.7866 85.938 55.6934 119.658L59.2181 121.549C76.6424 89.0758 110.913 67 150.336 67V63ZM222.281 90.68C203.247 73.4779 178.013 63 150.336 63V67C176.984 67 201.272 77.0841 219.599 93.6476L222.281 90.68ZM225.5 90C223.918 90 222.35 90.057 220.796 90.169L221.084 94.1586C222.542 94.0535 224.015 94 225.5 94V90ZM271.894 109.691C260.168 97.5525 243.714 90 225.5 90V94C242.585 94 258.014 101.08 269.018 112.47L271.894 109.691ZM306.925 96.9593C293.502 98.7609 280.863 103.044 269.489 109.33L271.423 112.831C282.373 106.78 294.536 102.658 307.457 100.924L306.925 96.9593ZM412.336 -2C355.243 -2 308.563 42.5743 305.194 98.822L309.187 99.0611C312.43 44.9131 357.372 2 412.336 2V-2Z" fill="white" mask="url(#path-1-inside-1_2_41)"/>
</svg>
