<svg fill="none" xmlns="http://www.w3.org/2000/svg">
<mask id="path-1-inside-1_2_54" fill="white">
<path fill-rule="evenodd" clip-rule="evenodd" d="M248 0C302.033 0 348.246 33.4795 367.027 80.8256C379.843 74.5334 394.259 71 409.5 71C423.39 71 436.594 73.9345 448.527 79.2173C466.198 59.4456 491.896 47 520.5 47C538.223 47 554.83 51.7777 569.103 60.1154C575.328 58.7322 581.822 58 588.5 58C626.278 58 658.196 81.4354 668.503 113.592C671.279 113.202 674.116 113 677 113C705.889 113 730.009 133.246 735.719 160.21C755.447 169.957 769 190.159 769 213.5C769 246.361 742.137 273 709 273C695.862 273 683.711 268.813 673.829 261.711C658.873 274.909 638.698 283 616.5 283C609.585 283 602.866 282.215 596.439 280.734C580.551 290.992 561.277 297 540.5 297C528.554 297 517.105 295.014 506.51 291.376C488.705 322.805 455.066 344 416.5 344C387.321 344 360.963 331.867 342.148 312.349C321.228 327.241 295.637 336 268 336C228.525 336 193.223 318.13 169.743 290.039C156.66 294.55 142.616 297 128 297C57.3076 297 0 239.692 0 169C0 98.3075 57.3076 41 128 41C136.226 41 144.271 41.776 152.066 43.2589C175.519 16.7287 209.806 0 248 0Z"/>
</mask>
<path fill-rule="evenodd" clip-rule="evenodd" d="M248 0C302.033 0 348.246 33.4795 367.027 80.8256C379.843 74.5334 394.259 71 409.5 71C423.39 71 436.594 73.9345 448.527 79.2173C466.198 59.4456 491.896 47 520.5 47C538.223 47 554.83 51.7777 569.103 60.1154C575.328 58.7322 581.822 58 588.5 58C626.278 58 658.196 81.4354 668.503 113.592C671.279 113.202 674.116 113 677 113C705.889 113 730.009 133.246 735.719 160.21C755.447 169.957 769 190.159 769 213.5C769 246.361 742.137 273 709 273C695.862 273 683.711 268.813 673.829 261.711C658.873 274.909 638.698 283 616.5 283C609.585 283 602.866 282.215 596.439 280.734C580.551 290.992 561.277 297 540.5 297C528.554 297 517.105 295.014 506.51 291.376C488.705 322.805 455.066 344 416.5 344C387.321 344 360.963 331.867 342.148 312.349C321.228 327.241 295.637 336 268 336C228.525 336 193.223 318.13 169.743 290.039C156.66 294.55 142.616 297 128 297C57.3076 297 0 239.692 0 169C0 98.3075 57.3076 41 128 41C136.226 41 144.271 41.776 152.066 43.2589C175.519 16.7287 209.806 0 248 0Z" fill="#151515"/>
<path d="M367.027 80.8256L365.168 81.5631L365.965 83.5747L367.908 82.6209L367.027 80.8256ZM448.527 79.2173L447.717 81.0461L449.048 81.6353L450.018 80.5501L448.527 79.2173ZM569.103 60.1154L568.095 61.8423L568.772 62.2379L569.537 62.0678L569.103 60.1154ZM668.503 113.592L666.599 114.202L667.113 115.807L668.782 115.573L668.503 113.592ZM735.719 160.21L733.762 160.625L733.963 161.574L734.833 162.004L735.719 160.21ZM673.829 261.711L674.996 260.087L673.701 259.156L672.506 260.211L673.829 261.711ZM596.439 280.734L596.888 278.785L596.065 278.596L595.355 279.054L596.439 280.734ZM506.51 291.376L507.16 289.484L505.589 288.945L504.77 290.39L506.51 291.376ZM342.148 312.349L343.588 310.961L342.392 309.72L340.989 310.719L342.148 312.349ZM169.743 290.039L171.278 288.756L170.394 287.699L169.091 288.148L169.743 290.039ZM152.066 43.2589L151.692 45.2236L152.811 45.4364L153.564 44.5835L152.066 43.2589ZM368.886 80.0882C349.813 32.0058 302.88 -2 248 -2V2C301.185 2 346.679 34.9531 365.168 81.5631L368.886 80.0882ZM409.5 69C393.947 69 379.23 72.6064 366.145 79.0303L367.908 82.6209C380.456 76.4604 394.571 73 409.5 73V69ZM449.336 77.3885C437.153 71.995 423.674 69 409.5 69V73C423.105 73 436.034 75.874 447.717 81.0461L449.336 77.3885ZM520.5 45C491.302 45 465.07 57.7063 447.035 77.8845L450.018 80.5501C467.326 61.185 492.489 49 520.5 49V45ZM570.112 58.3884C555.541 49.8768 538.587 45 520.5 45V49C537.859 49 554.119 53.6786 568.095 61.8423L570.112 58.3884ZM588.5 56C581.676 56 575.036 56.7483 568.67 58.163L569.537 62.0678C575.62 60.7161 581.969 60 588.5 60V56ZM670.408 112.982C659.82 79.9489 627.096 56 588.5 56V60C625.46 60 656.572 82.922 666.599 114.202L670.408 112.982ZM668.782 115.573C671.465 115.195 674.209 115 677 115V111C674.022 111 671.092 111.208 668.225 111.612L668.782 115.573ZM677 115C704.936 115 728.246 134.577 733.762 160.625L737.675 159.796C731.771 131.915 706.841 111 677 111V115ZM771 213.5C771 189.362 756.982 168.484 736.605 158.417L734.833 162.004C753.911 171.429 767 190.955 767 213.5H771ZM709 275C743.226 275 771 247.481 771 213.5H767C767 245.241 741.048 271 709 271V275ZM672.662 263.335C682.874 270.674 695.431 275 709 275V271C696.294 271 684.549 266.952 674.996 260.087L672.662 263.335ZM616.5 285C639.188 285 659.833 276.729 675.152 263.211L672.506 260.211C657.913 273.088 638.208 281 616.5 281V285ZM595.99 282.683C602.563 284.197 609.433 285 616.5 285V281C609.736 281 603.168 280.232 596.888 278.785L595.99 282.683ZM540.5 299C561.665 299 581.315 292.879 597.524 282.415L595.355 279.054C579.786 289.105 560.888 295 540.5 295V299ZM505.861 293.267C516.663 296.977 528.332 299 540.5 299V295C528.777 295 517.547 293.051 507.16 289.484L505.861 293.267ZM416.5 346C455.818 346 490.106 324.389 508.25 292.361L504.77 290.39C487.303 321.221 454.313 342 416.5 342V346ZM340.708 313.737C359.883 333.629 386.755 346 416.5 346V342C387.888 342 362.043 330.105 343.588 310.961L340.708 313.737ZM268 338C296.066 338 322.06 329.104 343.308 313.978L340.989 310.719C320.395 325.379 295.207 334 268 334V338ZM168.209 291.322C192.052 319.848 227.907 338 268 338V334C229.142 334 194.394 316.413 171.278 288.756L168.209 291.322ZM128 299C142.841 299 157.105 296.512 170.395 291.93L169.091 288.148C156.215 292.588 142.391 295 128 295V299ZM-2 169C-2 240.797 56.203 299 128 299V295C58.4121 295 2 238.588 2 169H-2ZM128 39C56.203 39 -2 97.203 -2 169H2C2 99.4121 58.4121 43 128 43V39ZM152.44 41.2941C144.523 39.7879 136.352 39 128 39V43C136.1 43 144.02 43.7641 151.692 45.2236L152.44 41.2941ZM248 -2C209.209 -2 174.384 14.9929 150.568 41.9342L153.564 44.5835C176.654 18.4646 210.403 2 248 2V-2Z" fill="white" mask="url(#path-1-inside-1_2_54)"/>
</svg>
