<svg  width="704" height="256" fill="none" xmlns="http://www.w3.org/2000/svg">
<mask id="path-1-inside-1_2_24" fill="white">
<path fill-rule="evenodd" clip-rule="evenodd" d="M162.137 0C191.801 0 218.884 10.7267 239.501 28.4043C242.388 28.1971 245.303 28.0916 248.244 28.0916C291.401 28.0916 329.098 50.797 349.363 84.5798C384.704 87.5142 413.909 111.334 423.841 143.278C455.432 146.681 480 172.692 480 204.275C480 238.171 451.702 265.649 416.794 265.649C398.354 265.649 381.759 257.981 370.205 245.751C361.37 248.751 351.873 250.382 341.985 250.382C337.399 250.382 332.898 250.031 328.509 249.356C313.31 272.378 286.733 287.634 256.489 287.634C238.879 287.634 222.513 282.462 208.912 273.597C193.286 290.109 170.864 300.458 145.954 300.458C112.146 300.458 82.9216 281.396 69.0485 253.732C29.6998 246.283 0 212.618 0 172.214C0 140.098 18.7646 112.24 46.2243 98.4213C53.8572 42.8591 102.844 0 162.137 0Z"/>
</mask>
<path fill-rule="evenodd" clip-rule="evenodd" d="M162.137 0C191.801 0 218.884 10.7267 239.501 28.4043C242.388 28.1971 245.303 28.0916 248.244 28.0916C291.401 28.0916 329.098 50.797 349.363 84.5798C384.704 87.5142 413.909 111.334 423.841 143.278C455.432 146.681 480 172.692 480 204.275C480 238.171 451.702 265.649 416.794 265.649C398.354 265.649 381.759 257.981 370.205 245.751C361.37 248.751 351.873 250.382 341.985 250.382C337.399 250.382 332.898 250.031 328.509 249.356C313.31 272.378 286.733 287.634 256.489 287.634C238.879 287.634 222.513 282.462 208.912 273.597C193.286 290.109 170.864 300.458 145.954 300.458C112.146 300.458 82.9216 281.396 69.0485 253.732C29.6998 246.283 0 212.618 0 172.214C0 140.098 18.7646 112.24 46.2243 98.4213C53.8572 42.8591 102.844 0 162.137 0Z" fill="#151515"/>
<path d="M239.501 28.4043L238.199 29.9226L238.824 30.458L239.644 30.3991L239.501 28.4043ZM349.363 84.5798L347.648 85.6086L348.175 86.488L349.197 86.5729L349.363 84.5798ZM423.841 143.278L421.932 143.872L422.322 145.126L423.627 145.266L423.841 143.278ZM370.205 245.751L371.659 244.378L370.777 243.444L369.562 243.857L370.205 245.751ZM328.509 249.356L328.813 247.379L327.546 247.184L326.839 248.254L328.509 249.356ZM208.912 273.597L210.004 271.921L208.606 271.01L207.459 272.222L208.912 273.597ZM69.0485 253.732L70.8363 252.835L70.3927 251.951L69.4205 251.767L69.0485 253.732ZM46.2243 98.4213L47.1233 100.208L48.0625 99.7352L48.2056 98.6935L46.2243 98.4213ZM240.803 26.886C219.832 8.90512 192.29 -2 162.137 -2V2C191.311 2 217.936 12.5483 238.199 29.9226L240.803 26.886ZM248.244 26.0916C245.255 26.0916 242.292 26.1988 239.358 26.4094L239.644 30.3991C242.483 30.1953 245.351 30.0916 248.244 30.0916V26.0916ZM351.078 83.5509C330.456 49.1741 292.113 26.0916 248.244 26.0916V30.0916C290.689 30.0916 327.739 52.4198 347.648 85.6086L351.078 83.5509ZM425.751 142.684C415.573 109.95 385.669 85.5875 349.528 82.5866L349.197 86.5729C383.739 89.441 412.245 112.718 421.932 143.872L425.751 142.684ZM423.627 145.266C454.261 148.566 478 173.771 478 204.275H482C482 171.613 456.604 144.796 424.056 141.289L423.627 145.266ZM478 204.275C478 237.011 450.653 263.649 416.794 263.649V267.649C452.75 267.649 482 239.33 482 204.275H478ZM416.794 263.649C398.917 263.649 382.844 256.218 371.659 244.378L368.751 247.124C380.674 259.745 397.791 267.649 416.794 267.649V263.649ZM341.985 252.382C352.094 252.382 361.808 250.714 370.848 247.645L369.562 243.857C360.932 246.787 351.652 248.382 341.985 248.382V252.382ZM328.204 251.333C332.695 252.023 337.297 252.382 341.985 252.382V248.382C337.501 248.382 333.102 248.039 328.813 247.379L328.204 251.333ZM256.489 289.634C287.416 289.634 314.615 274.031 330.178 250.458L326.839 248.254C312.004 270.725 286.05 285.634 256.489 285.634V289.634ZM207.82 275.272C221.739 284.344 238.483 289.634 256.489 289.634V285.634C239.275 285.634 223.287 280.579 210.004 271.921L207.82 275.272ZM145.954 302.458C171.427 302.458 194.37 291.874 210.365 274.971L207.459 272.222C192.202 288.345 170.301 298.458 145.954 298.458V302.458ZM67.2607 254.628C81.4703 282.963 111.384 302.458 145.954 302.458V298.458C112.909 298.458 84.3729 279.828 70.8363 252.835L67.2607 254.628ZM-2 172.214C-2 213.637 28.4414 248.08 68.6765 255.697L69.4205 251.767C30.9581 244.486 2 211.599 2 172.214H-2ZM45.3252 96.6347C17.2375 110.77 -2 139.291 -2 172.214H2C2 140.905 20.2917 113.71 47.1233 100.208L45.3252 96.6347ZM162.137 -2C101.876 -2 52.016 41.5664 44.2429 98.1491L48.2056 98.6935C55.6983 44.1518 103.812 2 162.137 2V-2Z" fill="white" mask="url(#path-1-inside-1_2_24)"/>
</svg>
