<svg xmlns="http://www.w3.org/2000/svg" width="600" height="800" viewBox="0 0 600 800" version="1.1"><path d="M 274.500 54.608 C 245.943 57.520, 223.986 62.568, 198 72.197 C 124.604 99.391, 65.131 156.759, 42.699 222 C 28.951 261.984, 27.077 305.581, 37.412 345 C 45.665 376.475, 57.890 401.938, 82.187 438.260 C 100.912 466.253, 135.945 509.506, 169.401 545.935 C 193.869 572.578, 199.829 578.890, 231.788 612 L 240.958 621.500 240.979 643.128 C 241.002 666.575, 241.266 667.724, 246.341 666.451 C 249.324 665.702, 248.359 662.593, 256.452 699 C 259.570 713.025, 262.359 725.319, 262.650 726.320 C 263.017 727.583, 262.539 728.308, 261.090 728.687 C 258.598 729.338, 258.431 731.701, 260.521 736.705 C 261.982 740.200, 261.946 740.449, 259.635 742.923 C 254.024 748.930, 251.642 759.303, 253.931 767.763 C 255.226 772.551, 259.857 778.358, 264.152 780.579 C 268.312 782.730, 323.623 782.771, 327.730 780.625 C 335.025 776.815, 339.386 769.055, 339.319 760 C 339.266 752.777, 337.236 747.008, 333.264 742.796 C 330.806 740.190, 330.762 739.922, 332.036 735.371 C 333.282 730.920, 333.237 730.570, 331.256 729.254 C 329.554 728.124, 329.313 727.348, 329.990 725.179 C 330.450 723.706, 332.036 717.100, 333.514 710.500 C 344.218 662.694, 343.016 666.552, 347.318 666.190 L 351 665.879 351 643.780 L 351 621.680 374.761 597.590 C 423.679 547.994, 465.157 501.029, 494.951 461.500 C 542.552 398.346, 563 347.715, 563 293 C 563 243.114, 545.573 195.840, 512.128 155 C 468.996 102.331, 406.567 67.615, 335 56.500 C 324.917 54.934, 283.885 53.651, 274.500 54.608 M 269.698 77.750 C 269.404 78.713, 266.724 86.475, 263.742 95 C 247.855 140.427, 238.988 200.658, 239.012 263 C 239.023 292.825, 243.027 358.059, 246.468 384.467 C 246.757 386.685, 247.926 396.150, 249.066 405.500 C 254.950 453.771, 264.705 514.246, 276.085 573 C 281.564 601.291, 281.850 600.758, 278.498 568.500 C 277.640 560.250, 276.487 548.775, 275.936 543 C 275.384 537.225, 274.262 525.525, 273.442 517 C 271.081 492.443, 269.135 470.403, 266.997 444 C 261.271 373.312, 260.419 357.876, 257.469 271.500 C 256.382 239.667, 260.121 157.289, 264.050 126.500 C 266.891 104.241, 270.289 82.380, 271.629 77.750 C 271.907 76.787, 271.707 76, 271.184 76 C 270.661 76, 269.993 76.787, 269.698 77.750 M 332.384 78.528 C 337.877 96.807, 343.965 136.548, 347.624 178 C 349.793 202.575, 350.660 283.728, 349.055 312 C 346.210 362.139, 340.272 426.668, 335.021 464.500 C 334.487 468.350, 333.331 476.900, 332.452 483.500 C 330.053 501.524, 328.067 515.477, 326.476 525.500 C 325.690 530.450, 323.906 541.700, 322.510 550.500 C 319.344 570.470, 316.127 589.715, 315.407 593 C 315.037 594.684, 315.189 595.174, 315.873 594.500 C 316.954 593.433, 327.134 552.658, 333.973 522 C 335.138 516.775, 336.304 511.600, 336.563 510.500 C 340.679 493.014, 348.858 452.319, 353.446 426.500 C 360.444 387.117, 363.770 362.246, 367.156 324 C 369.110 301.923, 368.833 235.847, 366.697 214.500 C 362.930 176.858, 358.678 153.453, 349.984 122.500 C 345.895 107.945, 335.119 79.684, 332.826 77.500 C 332.101 76.811, 331.964 77.130, 332.384 78.528 M 175.814 120.250 C 161.466 146.298, 151.546 171.358, 145.048 197.969 C 134.699 240.348, 133.446 279.232, 140.982 324.134 C 148.461 368.694, 165.397 422.570, 187.463 472 C 199.034 497.920, 220.719 541.946, 234.993 568.500 C 239.428 576.750, 243.802 584.962, 244.714 586.750 C 248.061 593.316, 247.777 589.760, 244.354 582.250 C 229.354 549.335, 219.700 526.812, 206.314 493.500 C 178.605 424.548, 163.017 370.084, 155.101 314.571 C 149.961 278.520, 151.427 223.565, 158.490 187.525 C 162.696 166.063, 171.496 136.813, 179.332 118.250 C 181.248 113.713, 182.510 110, 182.137 110 C 181.765 110, 178.919 114.612, 175.814 120.250 M 430.683 129.248 C 442.201 156.409, 450.069 186.596, 454.078 219 C 457.823 249.276, 456.493 294.581, 450.907 327 C 439.492 393.249, 414.335 460.421, 361.081 566.839 C 354.932 579.126, 350.365 588.892, 350.932 588.542 C 351.499 588.192, 355.878 581.289, 360.663 573.203 C 402.780 502.036, 433.280 438.477, 450.353 386.299 C 477.412 303.601, 477.701 235.236, 451.275 168 C 444.563 150.922, 430.666 123.148, 428.013 121.508 C 427.556 121.226, 428.758 124.709, 430.683 129.248 M 254 668.565 C 254 669.426, 256.925 682.914, 260.500 698.538 C 264.075 714.162, 267 727.182, 267 727.472 C 267 727.763, 268.575 728, 270.500 728 L 274 728 274 721.105 C 274 712.203, 277.311 700.993, 280.160 700.248 C 281.648 699.859, 281.833 699.515, 280.871 698.920 C 278.816 697.650, 280.953 693.149, 285.265 689.667 C 292.765 683.609, 305.524 685.309, 311.076 693.106 C 312.910 695.683, 313.107 696.600, 312.151 698.129 C 311.171 699.698, 311.275 700, 312.794 700 C 314.053 700, 315.114 701.447, 316.276 704.750 C 318.422 710.848, 320.275 722.769, 319.535 725.717 C 319.052 727.642, 319.357 728, 321.481 728 C 322.866 728, 324.337 728.027, 324.750 728.061 C 325.163 728.094, 326.228 724.831, 327.118 720.811 C 333.081 693.874, 336.263 679.711, 337.536 674.436 C 338.341 671.101, 339 668.063, 339 667.686 C 339 667.309, 319.875 667, 296.500 667 C 258.599 667, 254 667.169, 254 668.565 M 293 694.120 C 290.098 695.274, 284.723 700.811, 284.380 703 C 284.251 703.825, 283.196 707.200, 282.036 710.500 C 280.596 714.597, 280.018 718.342, 280.213 722.309 L 280.500 728.118 296.250 728.087 C 304.913 728.070, 312.478 728.043, 313.061 728.028 C 314.871 727.980, 312.025 711.054, 309.303 705.678 C 308.193 703.485, 308.139 702.538, 309.060 701.428 C 310.020 700.271, 309.863 700, 308.229 700 C 307.121 700, 305.956 699.328, 305.641 698.506 C 304.941 696.682, 299.067 692.985, 297 693.067 C 296.175 693.100, 294.375 693.574, 293 694.120" stroke="white" stroke-width="2" fill="#151515" fill-rule="evenodd"/></svg>
