<svg xmlns="http://www.w3.org/2000/svg" width="600" height="800" viewBox="0 0 600 800" version="1.1"><path d="M 273 43.588 C 219.910 48.020, 166.853 66.567, 122 96.371 C 92.829 115.756, 64.657 143.545, 46.344 171 C 14.279 219.073, 4.342 274.445, 18.081 328.500 C 23.864 351.251, 35.175 375.775, 50.367 398.500 C 71.907 430.720, 90.766 451.142, 151 507.473 C 178.836 533.505, 197.303 552.075, 206.220 563 C 218.961 578.609, 229.915 597.525, 229.976 604.022 C 230.032 609.956, 240.220 617.530, 254 621.883 C 261.867 624.368, 277.992 627, 285.347 627 L 290.715 627 291.358 633.147 C 291.711 636.527, 292 644.627, 292 651.147 C 292 661.623, 291.803 663, 290.305 663 C 289.372 663, 287.421 661.861, 285.968 660.469 C 282.702 657.341, 280.267 658.045, 279.471 662.347 C 279.150 664.081, 276.997 676.075, 274.686 689 L 270.483 712.500 263.492 713 L 256.500 713.500 256.626 723.500 C 256.719 730.907, 257.303 735.047, 258.876 739.465 C 260.437 743.849, 261 747.796, 261 754.349 C 261 765.160, 262.413 770.328, 266.253 773.559 C 269.152 775.998, 269.169 776, 293.126 776 C 312.157 776, 317.680 775.700, 319.915 774.544 C 324.670 772.085, 326.287 767.051, 326.998 752.500 C 327.347 745.350, 328.112 738.600, 328.697 737.500 C 330.281 734.524, 332.240 722.078, 331.845 717.500 L 331.500 713.500 325.500 713.195 C 322.200 713.027, 319.187 712.577, 318.805 712.195 C 318.422 711.813, 316.054 700.475, 313.541 687 C 311.028 673.525, 308.723 661.712, 308.418 660.750 C 307.689 658.442, 305.407 658.535, 302.273 661 C 297.161 665.021, 297 664.532, 297 645 L 297 627 301.901 627 C 304.596 627, 311.908 626.122, 318.151 625.049 C 343.437 620.703, 356.445 613.739, 357.726 603.862 C 358.037 601.463, 359.292 597.216, 360.514 594.425 C 363.539 587.514, 374.375 571.018, 381.484 562.500 C 389.854 552.472, 415.838 526.723, 442.500 502.038 C 512.516 437.212, 541.728 401.151, 562.018 354.500 C 566.363 344.509, 572.190 324.124, 574.594 310.500 C 577.053 296.570, 577.049 265.397, 574.588 251.500 C 567.554 211.787, 550.853 177.034, 523.521 145.231 C 479.427 93.923, 408.082 56.542, 333 45.406 C 323.028 43.927, 283.341 42.724, 273 43.588 M 271 49.483 C 236.121 57.589, 209.952 89.742, 198.096 139.057 C 193.281 159.084, 189 195.806, 189 217.080 C 189 227.144, 191.444 263.767, 193.032 277.500 C 195.648 300.122, 201.205 333.060, 205.517 351.500 C 217.108 401.065, 228.060 437.149, 249.980 498 C 263.871 536.562, 272.028 563.076, 273.785 575.381 C 274.485 580.280, 274.660 580.514, 277.854 580.820 C 283.532 581.366, 283.758 581, 282.791 572.846 C 281.904 565.373, 277.782 537.400, 275.961 526.500 C 275.409 523.200, 274.057 514.425, 272.954 507 C 271.852 499.575, 269.830 486.075, 268.460 477 C 264.880 453.277, 262.395 435.294, 259.548 412.500 C 253.965 367.797, 252.772 356.825, 249.058 316 C 243.938 259.721, 243.920 186.254, 249.016 143.500 C 254.631 96.393, 263.709 65.950, 276.174 52.427 C 280.737 47.477, 280.417 47.295, 271 49.483 M 310 48.759 C 310 49.177, 310.920 50.093, 312.043 50.795 C 315.408 52.896, 323.384 66.066, 326.747 75.072 C 335.722 99.109, 340.287 125.203, 343.531 171 C 345.218 194.810, 345.455 244.410, 343.993 267.500 C 342.522 290.738, 340.084 323.042, 338.975 334 C 335.842 364.942, 334.852 374.324, 333.960 381.500 C 332.036 396.989, 326.891 433.642, 324.907 446 C 322.038 463.872, 314.319 510.050, 311.452 526.500 C 307.881 546.983, 305.135 566.585, 304.797 574 L 304.500 580.500 308.455 580.500 C 312.274 580.500, 312.437 580.362, 313.187 576.500 C 317.217 555.727, 323.069 536.575, 335.491 503.500 C 354.768 452.171, 371.401 399.548, 380.847 360 C 383.437 349.154, 385.076 341.330, 389.960 316.500 C 392.029 305.983, 395.924 276.764, 397.540 259.639 C 399.631 237.485, 399.117 186.869, 396.629 170 C 386.339 100.211, 359.921 59.699, 318 49.420 C 311.589 47.848, 310 47.717, 310 48.759 M 210.213 62.074 C 168.355 77.877, 133.143 106.135, 107.539 144.470 C 95.959 161.807, 84.381 187.402, 79.479 206.500 C 75.039 223.796, 74.542 228.275, 74.542 251 C 74.542 271.791, 74.759 274.564, 77.391 287.500 C 86.612 332.821, 108.880 379.852, 144.860 430 C 151.406 439.124, 176.013 470.290, 193 490.972 C 219.256 522.940, 220.985 525.179, 230.540 539.580 C 238.885 552.159, 247.772 569.623, 250.554 578.910 L 252.436 585.191 255.842 584.638 C 257.715 584.334, 259.416 583.917, 259.622 583.712 C 260.098 583.235, 255.795 570.477, 252.299 562 C 247.139 549.486, 236.727 530.634, 222.292 507.664 C 173.062 429.329, 171.665 427.051, 163.301 411.500 C 144.485 376.517, 131.056 342.509, 124.012 312 C 119.086 290.665, 117.042 274.804, 116.344 252.500 C 114.414 190.790, 135.222 134.429, 174.764 94.262 C 188.044 80.771, 204.289 68.448, 217.853 61.575 C 220.606 60.180, 223.142 58.579, 223.488 58.019 C 224.318 56.677, 225.305 56.375, 210.213 62.074 M 368.002 58.750 C 368.004 59.163, 370.549 60.829, 373.659 62.454 C 390.277 71.138, 413.553 91.693, 428.631 111 C 441.585 127.588, 453.152 149.430, 460.404 171 C 468.587 195.339, 471.038 209.988, 471.706 238.545 C 472.133 256.812, 471.892 264.381, 470.544 275.045 C 466.171 309.643, 456.672 344.021, 442.284 377.320 C 438.303 386.532, 423.126 416.094, 416.521 427.500 C 409.967 438.818, 391.870 467.354, 373.395 495.500 C 356.503 521.235, 349.013 533.854, 340.453 551 C 333.947 564.031, 328 579.081, 328 582.516 C 328 583.225, 329.368 584.281, 331.039 584.864 C 333.754 585.810, 334.166 585.687, 334.897 583.712 C 335.347 582.495, 336.698 578.845, 337.899 575.600 C 346.005 553.711, 358.101 535.710, 392.077 494.976 C 451.906 423.246, 476.734 385.634, 496.029 337.500 C 507.695 308.396, 515 274.691, 515 249.966 C 515 216.756, 503.131 177.625, 483.829 147.201 C 457.912 106.350, 421.565 77.349, 375.004 60.369 C 367.598 57.668, 367.999 57.761, 368.002 58.750 M 85.939 131.750 C 50.749 165.608, 29.451 202.272, 20.319 244.717 C 17.761 256.604, 17.571 259.111, 17.598 280.500 C 17.625 301.618, 17.849 304.551, 20.337 316.337 C 29.071 357.714, 49.154 394.825, 84.281 434.500 C 96.550 448.357, 110.013 462.218, 124.550 475.960 C 144.718 495.025, 150.185 500.170, 164.992 514.014 C 201.275 547.940, 219.097 568.530, 229.031 588 C 230.855 591.575, 232.481 594.673, 232.643 594.885 C 233.316 595.765, 238 591.829, 238 590.384 C 238 588.025, 230.510 573.618, 224.284 564 C 213.667 547.599, 207.530 540.630, 159.999 491 C 149.201 479.725, 137.282 467.125, 133.512 463 C 129.742 458.875, 124.577 453.250, 122.035 450.500 C 109.182 436.594, 91.112 414.047, 80.761 399 C 75.270 391.017, 59 363.782, 59 362.572 C 59 362.365, 57.243 358.440, 55.096 353.848 C 47.998 338.672, 41.553 318.065, 38.325 300.229 C 36.127 288.082, 35.830 254.179, 37.829 243.500 C 42.601 217.996, 46.729 204.318, 55.137 186.152 C 57.261 181.560, 59 177.663, 59 177.491 C 59 176.537, 68.119 161.234, 73.297 153.500 C 81.172 141.737, 86.986 134.544, 99.366 121.250 C 101.030 119.463, 101.906 118, 101.311 118 C 100.717 118, 93.799 124.188, 85.939 131.750 M 491 121.593 C 491 121.919, 493.514 124.956, 496.587 128.343 C 520.848 155.081, 540.413 192.951, 548.041 227.938 C 554.070 255.587, 554.452 277.054, 549.405 304.500 C 542.060 344.438, 520.586 385.296, 483.409 430.066 C 468.984 447.438, 458.271 459.030, 416.464 502.505 C 382.951 537.356, 376.429 544.662, 367.819 557 C 362.350 564.836, 354.344 578.566, 351.076 585.715 L 348.691 590.929 351.096 592.931 C 352.418 594.033, 353.776 594.948, 354.113 594.967 C 354.450 594.985, 356.136 592.135, 357.859 588.634 C 359.583 585.133, 363.980 578.046, 367.631 572.884 C 381.804 552.847, 394.571 539.750, 451.500 486.856 C 512.209 430.449, 541.721 392.573, 558.602 349.402 C 584.278 283.735, 572.281 213.499, 525.385 154.938 C 518.560 146.415, 493.456 121, 491.862 121 C 491.388 121, 491 121.267, 491 121.593 M 270.560 586.559 C 253.849 588.834, 239.262 594.618, 235.410 600.497 C 233.906 602.793, 233.902 603.201, 235.364 605.433 C 239.108 611.147, 248.941 616.018, 264.227 619.733 C 270.070 621.152, 275.827 621.496, 293.500 621.480 C 317.361 621.459, 324.033 620.540, 338.054 615.343 C 345.501 612.583, 353 606.736, 353 603.690 C 353 602.799, 351.632 600.511, 349.960 598.607 C 343.206 590.915, 317.699 584.893, 292.757 585.103 C 286.015 585.160, 276.027 585.815, 270.560 586.559 M 283.586 668.250 C 283.392 668.938, 282.741 672.425, 282.138 676 C 279.919 689.162, 277.842 700.610, 276.933 704.693 C 274.943 713.634, 273.601 713, 294.500 713 C 304.675 713, 313 712.866, 313 712.702 C 313 712.538, 311.397 703.875, 309.437 693.452 C 307.477 683.028, 305.617 673.027, 305.302 671.226 C 304.569 667.027, 303.758 666.596, 299.494 668.138 C 296.105 669.364, 296 669.560, 296 674.663 C 296 677.557, 296.864 682.304, 297.920 685.212 C 301.099 693.970, 301.418 696.881, 299.439 699.067 C 296.363 702.466, 289.035 701.168, 287.777 697 C 287.528 696.175, 288.333 692.125, 289.565 688 C 292.218 679.121, 293.296 671.963, 292.228 670.313 C 291.464 669.132, 286.750 667, 284.904 667 C 284.372 667, 283.779 667.563, 283.586 668.250" stroke="white" stroke-width="2" fill="#151515" fill-rule="evenodd"/></svg>
