<svg xmlns="http://www.w3.org/2000/svg" width="600" height="800" viewBox="0 0 600 800" version="1.1"><path d="M 281.850 22.557 C 251.198 26.753, 240.881 31.137, 225.507 46.500 C 196.795 75.190, 175.325 123.471, 166.583 179 C 162.129 207.297, 161.893 255.633, 166.066 285 C 175.170 349.062, 190.294 404.992, 217.984 477 C 220.679 484.010, 230.974 509.050, 232.990 513.500 C 233.987 515.700, 237.147 523.125, 240.012 530 C 242.878 536.875, 245.817 543.850, 246.544 545.500 C 253.038 560.240, 260.087 580.413, 263.491 594 C 264.387 597.575, 265.543 602.127, 266.060 604.116 C 267.538 609.800, 267.366 610.151, 263.275 609.810 L 259.549 609.500 256.913 600 C 251.020 578.763, 244.012 561.735, 234.070 544.494 C 199.105 483.857, 186.407 459.432, 166.488 414.500 C 163.568 407.915, 151.789 377.215, 149.021 368.979 C 137.104 333.515, 130.186 304.680, 125.325 270.213 C 122.923 253.178, 122.937 213.472, 125.350 198 C 127.410 184.795, 131.802 165.904, 135.348 155 C 150.818 107.424, 183.175 63.151, 221 37.806 C 226.775 33.936, 231.650 30.372, 231.833 29.885 C 232.264 28.742, 230.058 28.758, 226.399 29.924 C 224.805 30.432, 220.125 31.828, 216 33.026 C 147.827 52.824, 95.104 94.895, 67.533 151.500 C 46.465 194.752, 40.056 236.649, 47.070 285.247 C 55.037 340.442, 81.291 396.889, 128.766 460.898 C 146.775 485.178, 161.064 502.212, 193.027 537.500 C 224.634 572.395, 228.356 577.031, 233.984 588.500 C 240.117 601, 241.676 607.138, 243.931 627.674 C 246.078 647.217, 246.384 647.772, 255.265 648.205 L 261.300 648.500 265.074 659.500 C 267.149 665.550, 271.799 679.012, 275.407 689.415 L 281.967 708.330 278.560 711.639 C 275.182 714.919, 275.078 715.216, 272.369 729.262 C 272.070 730.813, 270.337 733.166, 268.418 734.630 L 265 737.237 265 756.508 C 265 773.992, 265.177 775.997, 266.912 778.139 L 268.823 780.500 304.307 780.500 C 337.797 780.500, 339.908 780.393, 341.895 778.595 C 343.903 776.778, 344 775.756, 344 756.464 L 344 736.237 340.572 733.622 C 337.765 731.482, 336.937 729.964, 336.006 725.254 C 334.149 715.861, 333.009 713.143, 330.038 711.027 L 327.220 709.021 337.364 678.760 L 347.509 648.500 353.504 648.243 C 365.379 647.733, 365.201 648.002, 367.487 627 C 371.249 592.435, 376.011 583.465, 409.960 547 C 491.078 459.871, 532.099 398.484, 554.968 330 C 569.596 286.198, 572.430 239.936, 562.963 199.500 C 553.735 160.081, 535.235 125.934, 507.500 97.128 C 479.296 67.833, 441.732 45.432, 400.500 33.317 C 393.900 31.378, 387.763 29.574, 386.863 29.309 C 385.962 29.043, 384.966 29.246, 384.648 29.761 C 384.330 30.275, 387.317 32.754, 391.285 35.270 C 416.876 51.494, 439.212 73.858, 458.433 102.500 C 466.680 114.789, 479.669 140.931, 484.460 154.882 C 493.653 181.657, 497.428 205.505, 497.378 236.500 C 497.335 262.773, 494.633 284.293, 487.584 314.500 C 485.192 324.752, 484.209 328.450, 480.610 340.750 C 464.207 396.812, 434.689 457.105, 388.428 529.040 C 373.259 552.625, 369.584 559.058, 364.590 570.764 C 360.675 579.940, 354.930 596.678, 352.926 604.750 C 351.668 609.814, 351.500 610, 348.180 610 C 344.841 610, 344.756 609.903, 345.335 606.750 C 349.397 584.609, 356.121 566.071, 373.535 529 C 411.596 447.977, 428.567 403.627, 442.411 349 C 451.912 311.512, 456.098 285.063, 457.944 250.874 C 459.678 218.746, 456.687 184.702, 449.553 155.371 C 439.140 112.556, 420.710 76.843, 395.030 49.714 C 382.284 36.248, 369.765 29.027, 353.085 25.518 C 332.116 21.107, 301.683 19.842, 281.850 22.557 M 306.576 27.513 C 297.817 36.964, 287.896 69.484, 282.534 106.319 C 277.120 143.512, 275.500 171.078, 275.501 226 C 275.502 276.517, 276.821 308.443, 281.097 361.500 C 281.673 368.650, 282.537 379.450, 283.017 385.500 C 283.498 391.550, 284.576 403.475, 285.413 412 C 286.251 420.525, 287.618 434.475, 288.452 443 C 289.285 451.525, 290.660 465.475, 291.508 474 C 295.220 511.322, 299.513 562.424, 301.294 590.500 L 302.500 609.500 305.877 609.823 C 307.735 610, 309.603 609.775, 310.030 609.323 C 310.456 608.870, 311.310 601.975, 311.928 594 C 314.597 559.546, 319.747 510.127, 324.954 469 C 331.234 419.409, 331.892 414.116, 333.412 401 C 338.760 354.849, 342.621 310.958, 343.922 281.500 C 344.965 257.915, 344.950 196.780, 343.897 176.500 C 340.367 108.500, 327 46.126, 312.085 28.064 L 309.249 24.629 306.576 27.513 M 266 649.285 C 266 649.991, 266.950 653.254, 268.111 656.535 C 269.273 659.816, 273.502 671.950, 277.510 683.500 C 281.518 695.050, 285.116 705.288, 285.506 706.250 C 286.068 707.639, 287.431 708, 292.107 708 C 297.539 708, 299.458 707.019, 297 705.500 C 296.450 705.160, 296 703.088, 296 700.896 C 296 692.534, 305.513 688.751, 311.313 694.805 C 314.084 697.697, 315.109 704.197, 313 705.500 C 310.555 707.011, 312.446 708, 317.781 708 L 323.561 708 333.293 678.750 C 338.646 662.663, 343.019 649.163, 343.012 648.750 C 343.006 648.337, 325.675 648, 304.500 648 C 273.813 648, 266 648.261, 266 649.285 M 287.467 717.054 C 287.093 717.659, 286.190 720.707, 285.461 723.827 C 284.731 726.947, 283.831 730.288, 283.460 731.250 C 282.831 732.884, 284.249 733, 304.912 733 L 327.038 733 326.379 730.373 C 326.016 728.928, 324.969 725.216, 324.051 722.123 L 322.383 716.500 305.265 716.227 C 293.614 716.041, 287.930 716.305, 287.467 717.054 M 282.199 718.664 C 281.670 719.674, 280.925 722.075, 280.544 724 C 280.163 725.925, 279.629 728.288, 279.358 729.250 C 279.087 730.212, 279.346 731, 279.933 731 C 280.520 731, 281 730.116, 281 729.035 C 281 727.954, 281.707 724.986, 282.572 722.440 C 284.175 717.719, 283.941 715.344, 282.199 718.664 M 326 718.086 C 326 719.282, 329.243 732.251, 329.709 732.917 C 329.869 733.146, 330.270 733.063, 330.601 732.733 C 331.423 731.910, 327.837 717, 326.817 717 C 326.368 717, 326 717.489, 326 718.086" stroke="white" stroke-width="2" fill="#151515" fill-rule="evenodd"/></svg>
