<svg xmlns="http://www.w3.org/2000/svg" width="600" height="800" viewBox="0 0 600 800" version="1.1"><path d="M 272 41.557 C 219.232 46.206, 170.667 61.788, 132 86.476 C 109.735 100.691, 84.118 123.545, 70.838 141.040 C 42.172 178.804, 27 223.560, 27 270.360 C 27 302.122, 33.721 332.324, 47.652 363.166 C 51.433 371.537, 52.065 372.783, 59.994 387.500 C 76.894 418.868, 113.137 465.028, 154.601 507.996 C 183.321 537.757, 193.776 550.493, 201.222 564.781 C 208.166 578.109, 212 592.506, 212 605.256 C 212 609.316, 214.507 616.669, 227.935 652 C 229.503 656.125, 234.911 670.385, 239.954 683.689 L 249.121 707.879 249.640 735.189 C 249.934 750.649, 250.620 763.714, 251.220 765.297 C 253.480 771.252, 254.914 771.469, 294.500 771.816 C 337.737 772.195, 340.218 771.982, 344.697 767.503 L 348 764.200 348 736.536 L 348 708.872 366.907 659.186 C 385.424 610.522, 385.826 609.305, 386.444 600 C 387.533 583.585, 391.036 572.948, 400.138 558.422 C 408.244 545.484, 416.021 536.236, 439.347 511.798 C 468.191 481.578, 477.697 471.024, 493.946 451.176 C 548.802 384.168, 572 330.020, 572 268.979 C 572 213.549, 550.010 161.020, 510.217 121.397 C 467.472 78.833, 413.066 52.968, 346.500 43.563 C 320.708 39.919, 297.638 39.298, 272 41.557 M 282.754 45.084 C 269.054 48.314, 252.264 62.122, 240.230 80.054 C 224.474 103.533, 213.880 136.315, 207.053 182.721 C 204.690 198.781, 203.617 235.237, 204.872 256.788 C 206.634 287.040, 211.879 331.197, 213.966 333.343 C 214.909 334.312, 224.573 332.494, 229.562 330.409 C 236.724 327.417, 236.784 329.233, 229.770 336.649 C 223.424 343.360, 210.110 350.157, 199.623 352.040 C 186.186 354.452, 169.007 352.192, 158.163 346.584 C 152.983 343.906, 154.297 346.791, 161.302 353.481 C 170.091 361.874, 177.439 365.407, 187 365.838 C 196.184 366.251, 203.533 363.808, 211.101 357.826 C 213.904 355.610, 216.577 354.181, 217.041 354.649 C 217.505 355.117, 218.333 358.200, 218.881 361.500 C 222.481 383.155, 241.054 460.364, 259.535 530.500 C 261.564 538.200, 263.781 546.630, 264.461 549.234 C 265.142 551.838, 265.467 554.200, 265.183 554.484 C 264.899 554.768, 259.172 555, 252.456 555 C 243.905 555, 239.935 554.625, 239.212 553.750 C 237.923 552.190, 210.158 497.049, 199.810 475.500 C 146.582 364.650, 128.795 305.830, 128.750 240.500 C 128.725 205.136, 133.275 181.394, 145.326 154 C 159.521 121.733, 186.018 88.443, 216.866 64.119 C 230.544 53.334, 230.330 53.692, 221.094 57.029 C 193.898 66.851, 168.283 83.502, 145.912 105.898 C 115.285 136.560, 98.835 166.788, 89.515 209.531 C 88.327 214.978, 86.017 238.365, 86.012 245 C 86.005 253.637, 88.454 280.454, 90.068 289.415 C 94.252 312.643, 107.578 356.385, 111.142 358.588 C 112.434 359.387, 120.109 356.467, 126.294 352.824 C 128.931 351.271, 131.293 350, 131.544 350 C 132.863 350, 131.680 354.200, 129.401 357.610 C 117.311 375.701, 93.277 384.388, 72.882 378.040 C 69.419 376.963, 66.366 376.300, 66.098 376.569 C 65.154 377.513, 76.955 387.760, 81.699 390.116 C 85.696 392.101, 88.008 392.498, 95.500 392.486 C 105.597 392.471, 107.841 391.629, 115.540 384.965 C 118.122 382.730, 120.437 381.104, 120.684 381.350 C 120.930 381.597, 126.428 391.632, 132.901 403.649 C 145.428 426.908, 165.898 462.365, 184.771 493.500 C 191.106 503.950, 201.673 521.394, 208.254 532.265 C 220.946 553.231, 221.207 554.093, 215.228 555.317 C 213.727 555.625, 211.600 556.564, 210.500 557.406 C 208.700 558.783, 217.474 558.940, 298.250 558.968 C 354.937 558.988, 388 558.646, 388 558.040 C 388 557.512, 386.087 556.536, 383.750 555.872 C 378.055 554.252, 377.423 553.561, 378.826 550.482 C 379.471 549.067, 388.467 534.317, 398.817 517.704 C 429.269 468.828, 448.557 435.936, 468 399.722 C 473.225 389.990, 477.891 382.021, 478.368 382.014 C 478.845 382.006, 480.841 383.409, 482.803 385.132 C 492.507 393.652, 505.639 395.519, 516.764 389.960 C 522.120 387.284, 533.653 377.319, 532.606 376.272 C 532.391 376.057, 529.392 376.808, 525.942 377.941 C 521.563 379.379, 517.079 379.997, 511.085 379.989 C 496.731 379.971, 486.316 375.559, 475.964 365.110 C 469.563 358.648, 465.175 351.820, 467.011 351.178 C 467.517 351.001, 471.209 352.463, 475.215 354.428 C 479.222 356.392, 483.862 358.260, 485.527 358.580 C 488.396 359.131, 488.678 358.882, 490.904 353.830 C 498.200 337.270, 508.145 301.615, 511.078 281.500 C 512.837 269.436, 513.411 233.114, 512.011 222.500 C 503.611 158.831, 463.484 101.799, 404.121 69.157 C 398.963 66.321, 394.607 64, 394.441 64 C 394.275 64, 391.134 62.609, 387.460 60.908 C 379.692 57.313, 369.111 53.538, 370.527 54.868 C 371.062 55.370, 376 59.352, 381.500 63.717 C 393.233 73.030, 410.572 89.994, 420.627 102 C 451.602 138.983, 466.921 174.600, 470.950 219 C 474.367 256.658, 468.198 301.186, 453.147 347.500 C 450.820 354.664, 442.412 377.262, 440.498 381.500 C 439.752 383.150, 436.453 391.025, 433.166 399 C 427.663 412.353, 422.867 423.277, 412.451 446.191 C 410.278 450.972, 397.250 477.297, 383.500 504.691 L 358.500 554.500 346.082 554.782 C 339.252 554.937, 333.300 554.700, 332.855 554.255 C 332.409 553.809, 334.469 544.683, 337.431 533.973 C 355.737 467.785, 380 366.975, 380 357.104 C 380 353.418, 382.636 353.666, 387.927 357.848 C 395.495 363.830, 402.829 366.256, 412 365.811 C 422.444 365.305, 429.213 361.994, 438.224 352.983 C 442.099 349.108, 445.075 345.742, 444.837 345.503 C 444.598 345.265, 441.584 346.209, 438.137 347.600 C 425.550 352.685, 411.186 354.246, 398.434 351.916 C 386.139 349.670, 370.691 340.175, 365.367 331.592 L 363.562 328.683 366.031 329.260 C 367.389 329.577, 370.435 330.554, 372.801 331.431 C 375.167 332.308, 379.204 333.132, 381.774 333.263 L 386.446 333.500 387.708 325.500 C 389.662 313.107, 392.737 287.954, 394.187 272.500 C 395.867 254.585, 395.829 207.021, 394.123 192.500 C 385.686 120.710, 363.428 71.275, 330.500 51.193 C 325.178 47.948, 312.352 43.315, 311.379 44.287 C 311.059 44.607, 311.977 46.136, 313.419 47.685 C 319.085 53.769, 327.013 71.917, 332.342 91 C 335.980 104.030, 339.896 129.244, 342.981 159.500 C 347.842 207.180, 346.496 279.927, 339.474 349 C 337.774 365.727, 335.450 386.958, 334.058 398.500 C 333.527 402.900, 332.415 412.125, 331.586 419 C 329.536 436.014, 324.004 475.640, 320.486 498.500 C 319.640 504, 318.547 511.200, 318.059 514.500 C 315.590 531.164, 311.849 553.436, 311.395 554.170 C 311.113 554.626, 305.342 555, 298.571 555 L 286.260 555 285.195 549.250 C 284.609 546.087, 283.861 541.475, 283.532 539 C 283.204 536.525, 282.507 531.800, 281.983 528.500 C 279.606 513.524, 273.067 464.521, 267.505 420 C 266.120 408.917, 263.078 381.752, 261.010 362 C 259.927 351.658, 257.815 326.267, 255.809 299.500 C 254.072 276.310, 254.062 187.243, 255.794 168.500 C 258.646 137.648, 260.003 127.523, 264.034 107 C 268.829 82.588, 278.311 57.410, 286.012 48.639 C 290.390 43.653, 290.112 43.349, 282.754 45.084 M 266 338.987 C 266 339.401, 268.575 342.295, 271.722 345.417 C 285.067 358.656, 302.199 361.671, 317.910 353.546 C 323.440 350.687, 335.009 339.676, 333.778 338.445 C 333.519 338.186, 330.712 339.122, 327.540 340.525 C 311.337 347.691, 289.466 347.702, 271.750 340.553 C 268.587 339.277, 266 338.572, 266 338.987 M 218 612.888 C 218 613.376, 225.669 633.964, 235.043 658.638 C 244.417 683.312, 252.278 704.063, 252.512 704.750 C 253 706.183, 257 706.474, 257 705.076 C 257 704.193, 250.829 677.338, 245.492 655 C 244.113 649.225, 241.300 637.188, 239.242 628.252 L 235.500 612.004 226.750 612.002 C 221.938 612.001, 218 612.400, 218 612.888 M 240.356 614.750 C 240.689 616.263, 242.770 625.150, 244.982 634.500 C 250.060 655.971, 256.577 683.676, 259.449 696 L 261.662 705.500 274.831 705.779 C 286.891 706.035, 288.001 705.908, 288.007 704.279 C 288.010 703.301, 288.864 701.210, 289.903 699.633 C 291.256 697.582, 291.578 696.015, 291.036 694.124 C 290.172 691.113, 291.060 688.025, 293.332 686.139 C 294.565 685.116, 294.663 684.354, 293.802 682.465 C 291.097 676.528, 299.997 672.014, 303.592 677.500 C 305.109 679.816, 305.109 680.184, 303.592 682.500 C 302.691 683.875, 302.422 685, 302.993 685 C 304.973 685, 307.427 691.728, 306.338 694.170 C 305.544 695.947, 305.819 697.118, 307.669 699.844 C 308.951 701.733, 310 703.891, 310 704.640 C 310 705.716, 312.687 706, 322.893 706 C 333.787 706, 335.881 705.752, 336.400 704.401 C 336.737 703.521, 338.594 695.533, 340.525 686.651 C 342.456 677.768, 344.972 666.450, 346.115 661.500 C 350.715 641.587, 357 613.357, 357 612.611 C 357 612.275, 330.619 612, 298.375 612 L 239.750 612 240.356 614.750 M 361.621 612.804 C 361.143 613.578, 342.203 697.642, 341.244 703.250 C 340.861 705.487, 341.144 706, 342.765 706 C 344.008 706, 345.166 704.966, 345.845 703.250 C 349.524 693.944, 379.366 615.185, 379.757 613.750 C 380.185 612.177, 379.317 612, 371.176 612 C 366.194 612, 361.895 612.362, 361.621 612.804 M 291 643.540 C 284.030 646.667, 278 654.734, 278 660.932 C 278 663.591, 277.417 664.195, 273.031 666.082 C 266.986 668.683, 265.425 670.278, 267.358 671.882 C 268.348 672.703, 277.506 672.954, 299.607 672.765 C 328.275 672.519, 330.498 672.373, 330.815 670.722 C 331.067 669.417, 329.835 668.353, 326.186 666.722 C 321.727 664.729, 321.162 664.114, 320.703 660.750 C 319.963 655.339, 315.521 648.373, 310.828 645.268 C 305.774 641.923, 296.421 641.108, 291 643.540" stroke="white" fill="#151515" stroke-width="2" fill-rule="evenodd"/></svg>
