<svg xmlns="http://www.w3.org/2000/svg" width="600" height="800" viewBox="0 0 600 800" version="1.1"><path d="M 277.500 48.591 C 275.300 48.806, 268.550 49.439, 262.500 49.997 C 237.571 52.299, 202.046 59.786, 184 66.543 C 140.799 82.718, 111.826 99.902, 85.865 124.749 C 52.547 156.636, 33.458 191.928, 25.960 235.500 C 23.372 250.542, 22.832 277.395, 24.866 290 C 27.786 308.105, 29.175 314.678, 32.998 328.500 C 34.194 332.827, 34.293 333.120, 39.072 346.500 C 57.779 398.879, 98.805 457.032, 160.431 518.520 C 182.551 540.592, 188.209 546.019, 208.311 564.448 C 214.257 569.900, 219.569 575.195, 220.116 576.216 C 221.172 578.189, 223.225 590.002, 224.946 604 C 226.737 618.574, 232.971 628.165, 243.515 632.571 C 245.545 633.419, 250.641 634.425, 254.839 634.806 L 262.473 635.500 268.746 651 C 276.084 669.132, 276.694 671.928, 274.636 678 C 273.797 680.475, 271.295 688.724, 269.075 696.332 C 266.457 705.307, 264.156 711.215, 262.520 713.158 C 259.320 716.961, 259.216 722.483, 262.071 737 C 263.206 742.775, 264.538 749.908, 265.031 752.851 C 266.232 760.019, 270.055 766.324, 274.470 768.419 C 277.482 769.848, 281.731 770.104, 303.012 770.140 L 328.016 770.181 332.378 767.625 C 337.654 764.533, 339.711 760.584, 341.558 750.002 C 342.304 745.729, 343.867 737.568, 345.030 731.866 C 347.399 720.256, 347.140 717.184, 343.380 712.254 C 341.949 710.377, 340.131 706.514, 339.341 703.671 C 338.551 700.827, 337.286 696.250, 336.530 693.500 C 335.774 690.750, 333.820 684.478, 332.187 679.563 L 329.219 670.626 331.511 665.063 C 332.772 662.003, 334.937 656.575, 336.323 653 C 337.709 649.425, 339.862 643.913, 341.106 640.750 L 343.368 635 348.741 635 C 362.780 635, 373.582 628.639, 379.033 617.161 C 380.379 614.328, 381.823 607.217, 383.197 596.661 C 384.443 587.089, 386.060 578.869, 387.164 576.500 C 388.324 574.010, 393.332 568.536, 400.431 562 C 418.043 545.782, 467.398 495.887, 479.070 482.500 C 496.162 462.897, 499.210 459.183, 510.671 444 C 548.634 393.706, 570.110 348.925, 579.252 301 C 582.229 285.393, 582.443 246.566, 579.630 232.500 C 572.645 197.576, 559.496 169.210, 538.836 144.500 C 495.240 92.356, 432.725 61.213, 350 50.429 C 339.097 49.007, 286.801 47.682, 277.500 48.591 M 269.433 63.026 C 248.444 73.099, 224.526 109.038, 212.576 148.456 C 204.164 176.205, 201.492 197.004, 201.523 234.500 C 201.551 269.220, 204.283 293.369, 212.498 331.500 C 213.920 338.100, 215.488 345.525, 215.981 348 C 218.216 359.203, 230.464 405.559, 236.458 425.500 C 248.184 464.510, 269.260 526.773, 279.110 551.500 C 281.179 556.695, 281.888 557.544, 284.391 557.830 C 287.273 558.159, 287.279 558.148, 286.585 553.830 C 286.203 551.448, 285.505 546.575, 285.035 543 C 284.565 539.425, 283.263 530.200, 282.143 522.500 C 279.833 506.629, 276.559 482.615, 274.985 470 C 270.249 432.047, 267.504 407.899, 264.981 382 C 261.563 346.902, 260.839 339.271, 259.956 329 C 257.910 305.190, 255.869 275.925, 255.110 259.500 C 253.509 224.867, 255.381 168.597, 259.001 142.500 C 264.345 103.989, 269.878 77.608, 275.304 64.772 C 276.171 62.721, 276.553 60.842, 276.155 60.596 C 275.756 60.349, 272.731 61.443, 269.433 63.026 M 332 60.896 C 332 61.365, 332.701 63.718, 333.557 66.124 C 336.813 75.274, 342.942 101.037, 344.947 114 C 346.095 121.425, 347.271 128.850, 347.559 130.500 C 352.828 160.653, 355.718 234.630, 352.988 269.500 C 350.474 301.623, 347.878 331.617, 346.499 344.500 C 345.675 352.200, 344.558 363, 344.018 368.500 C 343.159 377.238, 341.911 388.403, 337.031 431 C 333.814 459.076, 324.722 524.640, 321.152 545.500 C 320.116 551.550, 319.460 556.837, 319.694 557.250 C 319.927 557.663, 321.210 558, 322.546 558 C 325.427 558, 324.730 559.518, 337.565 525.295 C 368.418 443.024, 392.742 357.454, 401.524 300.292 C 405.982 271.275, 406.458 264.775, 406.421 233.500 C 406.383 201.305, 405.824 194.872, 400.982 170.967 C 395.272 142.780, 384.055 114.729, 370.312 94.269 C 360.700 79.961, 345.553 65.888, 334.750 61.229 C 333.238 60.577, 332 60.427, 332 60.896 M 156.500 96.772 C 136.473 111.744, 121.944 129.606, 109.546 154.500 C 94.661 184.385, 87.733 214.086, 87.619 248.500 C 87.470 293.510, 100.525 341.697, 127.115 394.286 C 135.751 411.364, 139.003 417.111, 151.572 437.500 C 168.558 465.053, 187.279 490.733, 212.444 521 C 233.731 546.602, 247.897 562.436, 248.751 561.582 C 249.065 561.269, 248.633 560.222, 247.793 559.256 C 240.299 550.643, 201.151 489.843, 185.494 462.500 C 167.640 431.321, 148.957 393.701, 141.047 373 C 139.891 369.975, 138.520 366.600, 138 365.500 C 135.310 359.806, 125.836 332.833, 123.950 325.500 C 123.526 323.850, 122.271 319.125, 121.161 315 C 118.519 305.184, 114.541 285.805, 112.848 274.500 C 110.759 260.555, 111.053 214.423, 113.316 201 C 120.544 158.130, 136.201 124.084, 161.489 96.250 C 164.613 92.813, 166.793 90.010, 166.334 90.022 C 165.875 90.033, 161.450 93.071, 156.500 96.772 M 446.132 96.750 C 460.772 112.047, 475.240 136.161, 483.892 159.686 C 502.721 210.881, 501.353 271.929, 479.940 336.039 C 459.837 396.227, 419.775 470.805, 365.005 550 C 357.293 561.151, 355.688 565.842, 362.072 558.571 C 450.754 457.568, 499.757 373.712, 514.927 297 C 518.882 277.003, 519.479 270.536, 519.456 248 C 519.432 224.198, 518.482 215.885, 513.509 196 C 505.265 163.028, 489.011 133.050, 467.978 112.021 C 461.062 105.106, 442.154 90, 440.416 90 C 440.007 90, 442.579 93.037, 446.132 96.750 M 269.177 636.250 C 269.355 636.938, 272.200 644.361, 275.500 652.747 L 281.500 667.993 303.155 667.997 L 324.811 668 327.817 659.750 C 329.471 655.212, 332.202 647.788, 333.887 643.250 L 336.950 635 302.902 635 C 276.157 635, 268.923 635.268, 269.177 636.250 M 283.659 679.750 C 283.043 680.755, 275 708.060, 275 709.146 C 275 709.616, 287.873 710, 303.607 710 C 330.441 710, 332.172 709.892, 331.542 708.250 C 331.173 707.288, 329.016 700.313, 326.750 692.750 L 322.629 679 303.374 679 C 292.783 679, 283.911 679.337, 283.659 679.750" stroke="white" stroke-width="2" fill="#151515" fill-rule="evenodd"/></svg>
