<svg xmlns="http://www.w3.org/2000/svg" width="600" height="800" viewBox="0 0 600 800" version="1.1"><path d="M 283.500 17.614 C 231.465 22.897, 186.224 38.820, 146.500 65.834 C 111.363 89.728, 82.518 121.864, 66.017 155.500 C 52.598 182.852, 47.119 205.496, 46.296 237 C 45.436 269.948, 50.342 295.676, 63.745 328.500 C 77.435 362.027, 90.994 384.164, 140 453 C 185.662 517.138, 197.581 534.886, 219.909 571.981 C 233.667 594.838, 242.822 613.208, 248.437 629.223 C 252.448 640.663, 252.955 641.565, 255.872 642.457 C 258.002 643.108, 258.855 643.908, 258.540 644.957 C 257.484 648.473, 256 664.004, 256 671.540 C 256 688.248, 260.137 699.754, 269.453 708.954 L 274.786 714.220 271.643 717.028 L 268.500 719.836 268.500 744.895 L 268.500 769.955 271.273 772.727 L 274.045 775.500 303.273 775.500 C 319.348 775.500, 333.767 775.146, 335.316 774.714 C 340.369 773.305, 341 769.834, 341 743.433 L 341 719.802 338.058 717.054 L 335.116 714.306 341.343 707.903 C 353.860 695.033, 357.237 680.211, 353.512 654.500 C 352.715 649, 352.049 644.163, 352.032 643.750 C 352.014 643.337, 352.845 643, 353.878 643 C 356.615 643, 357.370 641.661, 361.488 629.500 C 372.744 596.262, 402.943 546.110, 461.143 464 C 508.204 397.605, 523.982 372.899, 538.065 343.554 C 553.371 311.661, 560.804 284.876, 562.866 254.192 C 566.007 207.457, 552.356 162.552, 522.680 122 C 513.516 109.477, 486.378 82.554, 472.746 72.462 C 435.840 45.137, 396.780 28.244, 354 21.103 C 350.425 20.507, 344.575 19.525, 341 18.922 C 334.523 17.829, 291.105 16.842, 283.500 17.614 M 316 25.258 C 316 25.556, 317.468 27.982, 319.262 30.650 C 332.408 50.199, 342 102.694, 344.923 171.094 C 345.986 195.960, 345.453 266.463, 344.061 285 C 339.760 342.314, 338.463 358.145, 336.975 371.500 C 336.423 376.450, 333.735 403, 331.001 430.500 C 326.594 474.822, 324.351 495.913, 318.448 548.500 C 317.584 556.200, 316.792 563.399, 316.688 564.497 C 316.399 567.561, 320.760 567.851, 321.472 564.815 C 323.129 557.753, 337.851 475.155, 340.867 456 C 341.430 452.425, 343.916 437.350, 346.391 422.500 C 354.884 371.535, 356.368 361.505, 360.960 324 C 370.588 245.361, 370.425 189.555, 360.387 128 C 352.494 79.599, 338.995 45.906, 320.766 29.109 C 318.145 26.693, 316 24.961, 316 25.258 M 287.287 32.279 C 263.417 57.138, 248.607 109.611, 243.479 187.500 C 240.680 230.006, 242.087 262.139, 249.500 325 C 254.021 363.343, 270.191 464.252, 284.513 543.500 C 285.408 548.450, 286.671 555.650, 287.320 559.500 C 288.413 565.985, 288.684 566.500, 291 566.500 C 292.959 566.500, 293.452 566.035, 293.280 564.352 C 293.159 563.170, 291.481 547.870, 289.552 530.352 C 287.624 512.833, 285.347 491.975, 284.493 484 C 283.096 470.948, 282.296 463.290, 278.956 431 C 278.416 425.775, 277.084 412.050, 275.997 400.500 C 274.910 388.950, 273.589 375.225, 273.060 370 C 272.531 364.775, 271.836 357.125, 271.515 353 C 271.194 348.875, 270.497 340.775, 269.966 335 C 268.139 315.119, 266.007 283.451, 265.005 261.315 C 261.510 184.141, 268.900 91.460, 281.575 53.500 C 285.082 42.997, 289.428 33.438, 292.570 29.319 C 296.715 23.885, 293.756 25.543, 287.287 32.279 M 360 36.243 C 360 36.481, 363.695 39.541, 368.212 43.042 C 387.941 58.335, 403.568 78.052, 414.542 101.500 C 430.721 136.067, 438 172.998, 438 220.511 C 438 275.189, 427.406 322.414, 394.484 414.500 C 391.338 423.300, 388.175 432.300, 387.454 434.500 C 386.733 436.700, 384.055 444.350, 381.501 451.500 C 366.908 492.367, 342 566.071, 342 568.386 C 342 569.290, 342.814 570, 343.850 570 C 345.333 570, 347.142 566.188, 352.982 550.750 C 364.787 519.545, 376.872 488.705, 398.598 434.348 C 432.689 349.051, 442.372 318.895, 449.601 275.500 C 465.461 180.295, 437.895 91.881, 378.500 47.459 C 371.878 42.506, 360 35.305, 360 36.243 M 241.657 40.528 C 196.093 68.003, 165.803 121.177, 157.559 188.163 C 154.578 212.376, 155.849 250.922, 160.522 278.061 C 165.081 304.539, 173.400 334.922, 185.149 368 C 188.653 377.865, 228.401 478.826, 231.015 484.500 C 231.522 485.600, 235.147 494.825, 239.070 505 C 242.993 515.175, 248.566 529.575, 251.455 537 C 254.343 544.425, 258.394 554.887, 260.457 560.250 C 263.375 567.838, 264.627 570, 266.103 570 C 267.146 570, 268 569.533, 268 568.963 C 268 566.904, 253.580 524.107, 236.003 474 C 232.241 463.275, 223.322 437.850, 216.182 417.500 C 181.023 317.284, 171.905 276.509, 171.905 219.500 C 171.905 162.341, 183.697 115.987, 207.354 80.146 C 217.905 64.161, 226.358 55.111, 244.568 40.303 C 249.704 36.126, 248.848 36.192, 241.657 40.528 M 418 53.383 C 418 53.594, 421.901 56.601, 426.669 60.066 C 458.977 83.539, 483.734 121.833, 495.116 165.941 C 500.437 186.559, 502.241 201.868, 502.254 226.500 C 502.266 252.093, 500.496 266.168, 494.128 291.110 C 482.022 338.520, 467.532 370.942, 422.001 452.500 C 421.080 454.150, 418.277 459.325, 415.771 464 C 413.266 468.675, 407.952 478.575, 403.962 486 C 396.120 500.594, 377.032 538.465, 372.210 549 C 370.573 552.575, 367.381 559.446, 365.117 564.269 C 360.448 574.214, 360.508 574, 362.415 574 C 363.243 574, 367.224 567.249, 371.999 557.750 C 386.234 529.432, 401.686 500.974, 418.138 472.781 C 423.684 463.277, 436.357 441.550, 446.299 424.500 C 473.849 377.253, 487.645 349.104, 498.295 318.409 C 521.674 251.026, 520.040 189.089, 493.438 134.298 C 478.251 103.018, 457.033 78.517, 428.373 59.163 C 419.911 53.450, 418 52.385, 418 53.383 M 180.239 59.924 C 161.515 72.026, 140.800 92.791, 128.787 111.500 C 112.559 136.774, 102.485 164.191, 96.821 198.500 C 94.764 210.956, 95.061 249.619, 97.328 264.500 C 102.797 300.410, 115.194 336.777, 135.510 376.500 C 144.670 394.413, 156.051 414.400, 178.498 452 C 205.785 497.707, 217.982 519.458, 237.371 556.986 C 245.297 572.327, 248 576.320, 248 572.691 C 248 570.484, 208.987 493.399, 196.534 471 C 146.752 381.459, 132.436 351.371, 120.165 310.500 C 102.445 251.477, 102.932 195.734, 121.619 144.101 C 133.064 112.475, 154.382 82.304, 178.695 63.319 C 186.137 57.508, 187.777 56, 186.655 56 C 186.465 56, 183.578 57.766, 180.239 59.924 M 63.156 195.250 C 57.362 223.476, 57.192 250.835, 62.632 279.500 C 71.392 325.654, 93.558 368.202, 151.455 450 C 165.963 470.497, 203.540 526.198, 204.315 528.357 C 204.541 528.985, 205.044 529.207, 205.431 528.848 C 206.337 528.011, 187.165 497.369, 166.109 466 C 128.697 410.266, 117.612 393.439, 112.025 383.906 C 110.283 380.933, 106.613 374.900, 103.870 370.500 C 97.852 360.846, 85.327 336.230, 80.501 324.570 C 66.014 289.573, 59.594 253.343, 61.992 220.118 C 62.917 207.310, 65.025 192.089, 66.614 186.750 C 66.900 185.787, 66.713 185, 66.198 185 C 65.682 185, 64.314 189.613, 63.156 195.250 M 545.836 202.250 C 548.092 216.062, 547.996 249.392, 545.659 263.500 C 541.246 290.136, 533.371 314.106, 520.035 341.500 C 507.538 367.169, 499.979 379.508, 460.002 439.500 C 426.002 490.522, 397.202 536.536, 398.473 537.806 C 399.144 538.477, 398.188 539.868, 408.989 522.500 C 418.898 506.564, 440.981 473.337, 456.508 451 C 520.213 359.352, 537.671 325.267, 547.680 273 C 550.342 259.096, 550.289 218.939, 547.588 203.750 C 546.537 197.838, 545.372 193, 545.001 193 C 544.629 193, 545.004 197.162, 545.836 202.250 M 264 643.917 C 264 644.421, 264.337 644.983, 264.750 645.167 C 265.163 645.350, 267.975 648.414, 271 651.975 C 278.737 661.083, 281.533 663.427, 289.500 667.489 C 297.745 671.692, 304.635 672.758, 312.140 670.989 C 323.458 668.322, 330.101 663.598, 340.918 650.520 L 347.139 643 305.569 643 C 281.042 643, 264 643.376, 264 643.917 M 342.622 653.552 C 336.411 661.445, 327.272 669.049, 321.475 671.145 C 317.536 672.569, 317.092 673.577, 319.997 674.499 C 322.184 675.193, 327 682.668, 327 685.369 C 327 686.301, 326.430 687.281, 325.734 687.549 C 324.127 688.165, 325.128 704.160, 327.029 708.231 C 329.618 713.778, 334.417 712.260, 341.349 703.701 C 350.125 692.865, 352.849 681.274, 351.010 662.599 C 349.218 644.409, 349.541 644.757, 342.622 653.552 M 260.621 652.750 C 258.851 668.980, 258.783 676.659, 260.341 684.192 C 262.505 694.655, 265.458 700.531, 271.715 706.819 C 280.301 715.448, 283.515 713.112, 284.984 697.171 C 285.628 690.187, 285.513 688.344, 284.392 687.700 C 283.626 687.260, 283 686.203, 283 685.351 C 283 682.346, 286.276 676.950, 289.121 675.269 C 290.704 674.334, 292 673.306, 292 672.985 C 292 672.664, 290.538 671.868, 288.750 671.215 C 283.719 669.379, 274.542 661.653, 268.265 653.969 C 265.134 650.136, 262.274 647, 261.910 647 C 261.546 647, 260.966 649.587, 260.621 652.750 M 294.574 689.973 C 294.343 690.813, 294.120 694.202, 294.078 697.504 C 293.992 704.222, 292.844 709.062, 290.482 712.668 L 288.895 715.090 296.198 714.795 C 300.214 714.633, 303.387 714.163, 303.250 713.750 C 303.113 713.337, 303 707.647, 303 701.105 L 303 689.210 298.997 688.828 C 296.028 688.545, 294.885 688.841, 294.574 689.973 M 307 702 C 307 714.995, 307.001 715, 309.360 715 C 310.659 715, 313.890 715.297, 316.541 715.661 L 321.362 716.321 318.957 712.430 C 316.952 709.186, 316.487 706.916, 316.160 698.770 L 315.767 689 311.384 689 L 307 689 307 702" stroke="white" fill="#151515" stroke-width="2" fill-rule="evenodd"/></svg>
