<svg xmlns="http://www.w3.org/2000/svg" width="600" height="800" viewBox="0 0 600 800" version="1.1"><path d="M 294 59.654 C 292.075 59.866, 287.575 60.682, 284 61.468 C 279.972 62.353, 269.132 63.075, 255.500 63.364 C 226.768 63.975, 207.134 66.878, 182.764 74.118 C 128.419 90.263, 83.330 128.204, 57.334 179.662 C 37.233 219.454, 31.010 265.493, 39.584 311 C 46.771 349.151, 65.436 388.769, 96.826 432.500 C 120.409 465.356, 141.802 491.169, 212.026 571.500 C 221.161 581.950, 237.268 600.546, 247.818 612.824 L 267 635.147 267 659.574 C 267 682.667, 267.109 684.109, 269 686 C 270.111 687.111, 272.333 688, 274 688 C 275.983 688, 277 688.502, 277 689.481 C 277 690.295, 275.598 696.836, 273.884 704.016 C 270.773 717.044, 270.760 717.073, 267.169 718.574 C 265.189 719.401, 263.224 720.623, 262.800 721.289 C 261.307 723.639, 262.042 728.955, 266.029 744.645 C 271.557 766.404, 269.490 765, 296 765 C 316.256 765, 316.964 764.932, 319.383 762.750 C 321.386 760.944, 322.780 756.995, 326.453 742.728 C 330.803 725.834, 330.952 724.808, 329.471 721.945 C 328.451 719.972, 326.895 718.729, 324.962 718.342 C 322.590 717.868, 321.831 717.039, 321.099 714.126 C 320.598 712.132, 319.021 705.963, 317.594 700.419 C 316.167 694.874, 315 689.812, 315 689.169 C 315 688.472, 316.615 688, 319 688 C 325.813 688, 326.601 686.374, 327.290 670.903 C 327.618 663.532, 327.546 652.550, 327.129 646.500 L 326.373 635.500 331.597 629 C 338.271 620.696, 377.259 576.176, 399.466 551.500 C 440.852 505.514, 476.531 463.892, 486 450.553 C 488.475 447.067, 493.699 440.004, 497.609 434.857 C 506.594 423.032, 521.941 399.722, 529.934 385.760 C 546.490 356.844, 557.195 326.990, 562.121 296 C 563.883 284.916, 563.891 252.161, 562.135 241 C 555.227 197.110, 536.838 160.422, 505.565 128.143 C 472.352 93.859, 429.956 73.267, 376.500 65.453 C 370.450 64.568, 356.050 63.626, 344.500 63.358 C 332.930 63.090, 320.581 62.269, 317 61.531 C 309.382 59.960, 298.957 59.109, 294 59.654 M 294.500 68.005 C 291.750 68.319, 288.531 69.114, 287.346 69.772 C 281.761 72.873, 271.877 94.783, 267.448 113.882 C 260.966 141.829, 258.105 162.912, 255.419 202.500 C 251.552 259.494, 256.953 338.491, 274.972 488.500 C 275.500 492.900, 276.633 502.350, 277.489 509.500 C 278.949 521.695, 279.956 529.756, 283.547 558 C 284.352 564.325, 285.468 572.650, 286.029 576.500 C 286.590 580.350, 288.392 593.625, 290.033 606 C 291.675 618.375, 293.225 629.063, 293.478 629.750 C 293.977 631.108, 299.579 631.490, 300.365 630.219 C 301.927 627.691, 318.519 532.354, 326.595 479.500 C 327.435 474, 328.776 465.225, 329.573 460 C 330.371 454.775, 331.453 447.800, 331.979 444.500 C 338.734 402.068, 346.757 338.006, 350.014 300.500 C 353.526 260.059, 353.749 207.160, 350.520 180.500 C 344.688 132.346, 339.202 109.201, 328.456 87.416 C 322.595 75.532, 318.362 70.608, 312.794 69.195 C 307.038 67.734, 300.562 67.313, 294.500 68.005 M 218.046 80.545 C 204.220 87.171, 194.074 94.615, 181.500 107.358 C 166.467 122.594, 158.053 134.390, 148.586 153.500 C 136.956 176.979, 130.942 195.486, 126.327 222 C 123.768 236.706, 123.773 276.978, 126.336 291.500 C 136.978 351.801, 156.353 400.559, 206.007 492 C 209.143 497.775, 213.411 505.650, 215.490 509.500 C 220.685 519.116, 246.490 565.416, 259.520 588.500 C 265.419 598.950, 272.972 612.450, 276.305 618.500 C 283.178 630.975, 282.866 630.474, 283.397 629.917 C 284.106 629.173, 258.100 564.607, 248.993 544.500 C 246.438 538.858, 216.140 465.949, 209.516 449.500 C 167.416 344.967, 153.083 286.338, 156.157 231.247 C 159.141 177.762, 175.414 131.537, 202.858 98.582 C 208.759 91.497, 221.726 79.973, 225.182 78.743 C 225.907 78.485, 226.246 77.995, 225.935 77.655 C 225.624 77.314, 222.074 78.615, 218.046 80.545 M 380.026 79.750 C 380.040 80.162, 382.317 82.037, 385.085 83.915 C 390.432 87.543, 400.492 97.910, 407.485 107 C 428.682 134.550, 443.583 175.060, 448.910 219.613 C 452.734 251.594, 447.829 295.581, 436.071 334.748 C 428.253 360.795, 414.437 396.525, 399.241 430 C 398.118 432.475, 395.178 439, 392.708 444.500 C 390.239 450, 386.879 457.425, 385.242 461 C 383.604 464.575, 381.244 469.750, 379.996 472.500 C 378.748 475.250, 375.718 481.775, 373.262 487 C 370.807 492.225, 367.660 498.975, 366.269 502 C 364.877 505.025, 362.173 510.875, 360.260 515 C 358.347 519.125, 354.186 528.125, 351.014 535 C 347.843 541.875, 342.942 552.388, 340.124 558.363 C 337.306 564.337, 335 569.355, 335 569.513 C 335 569.672, 333.250 573.559, 331.111 578.151 C 327.319 586.290, 314.690 615.744, 310.915 625.250 C 308.114 632.304, 309.958 630.972, 314.399 622.733 C 316.543 618.755, 325.370 603.350, 334.015 588.500 C 342.659 573.650, 358.155 546.875, 368.451 529 C 390.059 491.484, 397.716 478.277, 403.524 468.500 C 412.079 454.101, 433.621 413.974, 440.596 399.444 C 463.704 351.311, 476.012 309.267, 479.078 268 C 481.085 240.973, 477.158 210.229, 468.347 184 C 457.994 153.180, 443.243 129.036, 421.584 107.457 C 410.399 96.314, 402.726 90.580, 389 83.110 C 381.338 78.940, 379.980 78.432, 380.026 79.750 M 493.052 129.873 C 515.204 155.039, 531.077 188.726, 537.405 224 C 542.365 251.648, 541.620 275.729, 534.946 303.500 C 522.296 356.139, 491.210 409.049, 421.553 496.500 C 356.131 578.633, 326.789 617.123, 328.382 618.716 C 328.722 619.055, 329.131 619.146, 329.290 618.917 C 333.139 613.386, 372.409 568.597, 405.987 531.439 C 473.516 456.710, 507.882 411.012, 530.336 366.085 C 557.444 311.846, 562.706 259.723, 546.089 210.024 C 536.457 181.215, 521.836 157.316, 499.927 134.570 C 489.026 123.252, 484.505 120.164, 493.052 129.873 M 102.869 131.083 C 84.062 151.191, 74.939 163.874, 64.496 184.430 C 55.335 202.463, 49.695 220.146, 45.816 243 C 44.134 252.907, 44.141 289.153, 45.826 299 C 53.018 341.016, 66.810 373.049, 97.279 418.500 C 115.376 445.495, 147.184 484.738, 197.380 542 C 229.284 578.394, 264.102 618.608, 265.710 620.917 C 265.869 621.146, 266.227 621.106, 266.505 620.829 C 267.682 619.651, 238.052 579.549, 200.503 531.500 C 176.266 500.486, 175.585 499.607, 157.137 475.500 C 108.708 412.218, 83.410 369.323, 70.147 328 C 61.469 300.963, 59.560 288.784, 59.566 260.500 C 59.572 232.309, 61.231 221.088, 68.904 197.349 C 76.379 174.221, 92.850 144.296, 105.278 131.265 C 106.975 129.486, 108.057 127.723, 107.682 127.348 C 107.307 126.974, 105.141 128.654, 102.869 131.083 M 274.674 639.731 C 273.936 640.947, 273.842 665.521, 274.565 668.402 L 275.217 671 297.634 671 L 320.051 671 319.775 655.250 L 319.500 639.500 297.321 639.231 C 285.122 639.083, 274.931 639.308, 274.674 639.731 M 282.566 689.221 C 282.350 689.924, 281.410 694.100, 280.477 698.500 C 279.545 702.900, 278.421 707.850, 277.981 709.500 C 277.540 711.150, 276.906 713.737, 276.571 715.250 L 275.962 718 295.981 718 C 314.400 718, 315.996 717.860, 315.946 716.250 C 315.917 715.288, 314.418 708.650, 312.615 701.500 L 309.337 688.500 296.148 688.221 C 286.114 688.008, 282.865 688.248, 282.566 689.221" stroke="white" stroke-width="2" fill="#151515" fill-rule="evenodd"/></svg>
