<svg width="599" height="932" viewBox="0 0 599 932" fill="none" xmlns="http://www.w3.org/2000/svg">
<path d="M58.9481 930L2.34763 893.608V213.075M58.9481 930V249.467M58.9481 930L598 718.926V38.3922M58.9481 249.467L2.34763 213.075M58.9481 249.467L598 38.3922M2.34763 213.075L541.4 2L598 38.3922M521.859 408.864L158.673 555.889V334.624L465.258 210.513M521.859 408.864V187.6L465.258 210.513M521.859 408.864L465.258 372.472M465.258 372.472V210.513M465.258 372.472L158.673 497.661M2.34763 831.013L58.9481 867.406M2.34763 756.773L58.9481 793.166M2.34763 686.9L58.9481 723.293M2.34763 622.85L58.9481 659.242M2.34763 550.066L58.9481 586.458M2.34763 490.383L58.9481 526.775M2.34763 419.054L58.9481 455.446M2.34763 340.447L58.9481 376.839M1 273.486L57.6005 309.878M57.6005 191.439L114.201 227.832M123.634 165.583L180.235 201.975M191.016 139.198L247.616 175.591M260.419 112.023L317.019 148.415M325.105 86.6937L381.705 123.086M392.486 60.3093L449.087 96.7015M465.258 31.8143L521.859 68.2064" stroke="white" stroke-width="2"/>
</svg>
