<?xml version="1.0" standalone="no"?>
<!DOCTYPE svg PUBLIC "-//W3C//DTD SVG 20010904//EN"
 "http://www.w3.org/TR/2001/REC-SVG-20010904/DTD/svg10.dtd">
<svg version="1.0" xmlns="http://www.w3.org/2000/svg"
 width="1310.000000pt" height="239.000000pt" viewBox="0 0 1310.000000 239.000000"
 preserveAspectRatio="xMidYMid meet">

<g transform="translate(0.000000,239.000000) scale(0.100000,-0.100000)"
fill="#000000" stroke="none">
<path d="M4103 2165 c-47 -20 -112 -67 -185 -131 -37 -33 -99 -73 -148 -97
-84 -41 -87 -41 -200 -43 -63 0 -131 -5 -151 -11 -32 -9 -44 -6 -100 20 -54
26 -76 31 -139 31 -64 0 -89 -5 -170 -39 -121 -49 -209 -54 -280 -15 -43 23
-54 24 -226 24 l-180 1 -58 -44 c-143 -108 -191 -156 -219 -223 -26 -60 -31
-66 -104 -108 -58 -34 -91 -62 -132 -113 -45 -57 -67 -74 -135 -108 -50 -24
-128 -51 -206 -70 -247 -59 -199 -26 -394 -269 l-171 -215 -90 -45 c-79 -40
-99 -45 -173 -50 l-84 -5 -17 -41 c-22 -56 -33 -67 -132 -140 -66 -49 -94 -77
-124 -126 -21 -35 -53 -85 -72 -111 -19 -27 -33 -51 -30 -53 2 -2 2834 -3
6293 -2 l6289 3 -160 79 -160 78 -210 213 c-183 186 -215 215 -249 221 -37 6
-69 0 -238 -52 l-58 -17 -170 166 c-93 92 -191 181 -217 197 -60 38 -103 39
-251 3 l-113 -27 -43 22 c-60 32 -142 120 -221 237 -133 196 -186 240 -375
315 -69 27 -124 57 -159 86 -42 35 -61 44 -91 44 -33 0 -42 -6 -71 -44 -19
-24 -42 -49 -52 -56 -22 -13 -58 -4 -51 14 3 8 -12 20 -40 32 -29 12 -120 86
-257 209 -116 105 -233 205 -259 224 l-48 34 -35 -22 c-20 -12 -88 -32 -161
-46 -184 -37 -236 -59 -360 -155 l-40 -31 -170 3 -171 3 -149 -72 -149 -73
-44 29 c-27 18 -64 32 -96 36 -87 11 -126 24 -161 56 -33 28 -39 30 -108 27
-66 -3 -74 -5 -83 -26 -6 -15 -37 -37 -79 -59 -38 -19 -139 -80 -225 -136
-287 -186 -415 -237 -593 -237 -59 0 -112 6 -138 15 -63 22 -158 83 -221 141
-56 51 -58 52 -135 59 -213 18 -251 33 -305 119 -58 94 -69 107 -104 122 -28
11 -41 11 -91 -2 -65 -17 -108 -40 -296 -160 -73 -46 -146 -87 -163 -90 -22
-4 -58 5 -126 32 -77 30 -102 46 -139 85 -57 61 -109 88 -272 139 -72 23 -178
60 -236 82 -100 39 -105 42 -138 93 -18 30 -44 61 -56 69 -28 20 -82 20 -125
1z"/>
</g>
</svg>
