<svg version="1.0" xmlns="http://www.w3.org/2000/svg"
 width="577.000000px" height="228.000000px" viewBox="0 0 577.000000 228.000000"
 preserveAspectRatio="xMidYMid meet">

<g transform="translate(0.000000,228.000000)"
fill="#151515" stroke="white">
<path d="M3844 2045 c-38 -19 -109 -67 -159 -106 -120 -96 -180 -122 -360
-158 -82 -17 -164 -34 -180 -39 -94 -28 -200 -107 -424 -313 -459 -423 -606
-531 -786 -576 -99 -24 -400 -24 -592 1 -79 10 -158 15 -176 12 -42 -8 -183
-75 -245 -118 -92 -62 -200 -160 -332 -301 -129 -137 -228 -232 -300 -289
l-35 -28 2578 0 c1876 0 2577 3 2577 11 0 6 -60 73 -134 148 -132 135 -134
137 -186 255 -30 65 -102 205 -160 310 -335 601 -669 1055 -872 1187 -80 51
-120 52 -214 4z"/>
</g>
</svg>
