<?xml version="1.0" encoding="UTF-8"?>
<svg version="1.1" xmlns="http://www.w3.org/2000/svg" width="897" height="257">
<path fill="#151515" stroke="white"  stroke-width="2" transform="translate(454,20)" d="M0 0 C6.61944543 3.65114674 11.80846468 9.61767325 17 15 C25.79500084 24.93330751 25.79500084 24.93330751 37.5 29.4375 C43.94594642 29.34541505 47.82631093 26.58347586 53 23 C74.04061227 9.1131959 74.04061227 9.1131959 81.90625 7.34765625 C86.92289742 8.40545943 89.15488132 11.91900405 92 16 C93.82056523 19.08928589 95.38809545 22.26796082 96.9375 25.5 C100.47226847 32.55127815 103.97099585 37.82839373 110 43 C110.825 44.010625 111.65 45.02125 112.5 46.0625 C115.16062346 49.18873256 118.03149561 51.74128196 121.140625 54.40625 C124.88362688 57.61453733 127.68984068 60.61069729 130 65 C130 65.66 130 66.32 130 67 C130.85271484 67.18175781 130.85271484 67.18175781 131.72265625 67.3671875 C132.49480469 67.53476563 133.26695312 67.70234375 134.0625 67.875 C134.81660156 68.03742188 135.57070313 68.19984375 136.34765625 68.3671875 C139 69 139 69 142.01171875 70.0390625 C147.44900908 71.61438652 153.13272317 71.39123724 158.75 71.5 C168.0326143 71.68222222 177.12184343 72.04061448 186 75 C187.66660429 75.02533689 189.3332894 75.04554219 191 75.0625 C200.23239623 75.85315317 206.2400182 82.32771112 212.75 88.375 C224.62083895 99.28026832 235.80932651 105.83919655 251.98486328 106.59912109 C264.91248604 107.2693075 274.97632341 112.10595832 285.1875 119.875 C302.93959069 133.02006011 327.8362521 142.76856587 350.0625 139.5 C359.44698283 138.30831964 368.26102148 137.71176698 376.1015625 143.5703125 C386.4587828 152.90279016 392.6408889 166.51509238 399.30517578 178.53149414 C409.59981153 197.77965255 409.59981153 197.77965255 424.34765625 213.609375 C424.89292969 214.06828125 425.43820312 214.5271875 426 215 C426 215.33 426 215.66 426 216 C138.24 216 -149.52 216 -446 216 C-439.73889199 200.34722997 -427.99782648 185.50777643 -414.875 175.0625 C-409.87276423 171.02885001 -406.58731022 167.00482141 -403.40234375 161.4453125 C-402 159 -402 159 -400.33984375 156.96484375 C-398.37246439 154.07973641 -398.63599856 151.52452474 -398.6015625 148.12109375 C-398 146 -398 146 -396.04736328 144.38842773 C-391.84402296 142.47331826 -388.20523674 142.61499151 -383.640625 142.6640625 C-381.7838507 142.65154552 -379.92707985 142.6385082 -378.0703125 142.625 C-375.1629601 142.62108041 -372.25595208 142.62496995 -369.34863281 142.63964844 C-366.5287861 142.64827769 -363.71034794 142.62643523 -360.890625 142.6015625 C-360.03406311 142.61490631 -359.17750122 142.62825012 -358.29498291 142.64199829 C-350.46845764 142.54740203 -344.88294581 139.67131682 -339.1796875 134.38671875 C-338.03886719 133.05060547 -338.03886719 133.05060547 -336.875 131.6875 C-336.04742187 130.73359375 -335.21984375 129.7796875 -334.3671875 128.796875 C-333.58601563 127.87390625 -332.80484375 126.9509375 -332 126 C-330.66883662 124.47726698 -329.33577861 122.95618605 -328 121.4375 C-327.46375 120.81746094 -326.9275 120.19742188 -326.375 119.55859375 C-323.27323809 116.04267613 -323.27323809 116.04267613 -321.07421875 115.69921875 C-315.92163423 115.67391964 -311.32711574 116.27819409 -306.3125 117.5 C-298.48720282 119.6925013 -298.48720282 119.6925013 -290.828125 117.8984375 C-282.52144715 112.68585778 -276.6256709 105.74694329 -270.69921875 98.0390625 C-269 96 -269 96 -267 95 C-260.45659752 94.561051 -254.43651613 94.96283416 -248.08984375 96.53515625 C-244.48288624 97.33745147 -241.70839039 97.425553 -238 97 C-231.97071072 92.8533421 -228.92272759 87.48318645 -225.3203125 81.23828125 C-221.98504322 75.76029537 -218.64802349 72.95295051 -213 70 C-211.43563405 69.14165187 -209.87185018 68.28224218 -208.30859375 67.421875 C-207.51227539 66.98721924 -206.71595703 66.55256348 -205.89550781 66.10473633 C-198.5665493 62.06536497 -192.97003354 58.79376735 -188.3359375 51.625 C-187 50 -187 50 -183.375 49.3125 C-180 50 -180 50 -177.80859375 51.05859375 C-174.70653479 52.09836595 -172.16085879 51.97451799 -168.92236328 51.81762695 C-165.15121949 51.70351216 -161.58817824 51.73514206 -158 53 C-155.11014846 56.17838586 -153.62988143 59.26732767 -151.8828125 63.140625 C-147.30329762 73.24888165 -137.90300556 81.15758595 -127.8125 85.3125 C-118.21282171 87.176795 -118.21282171 87.176795 -109.23046875 84.79296875 C-107.23670585 81.88777138 -106.29846959 78.68645698 -105.16015625 75.375 C-103.82224098 72.63610274 -102.59097249 71.56052836 -100 70 C-97.25 69.3125 -97.25 69.3125 -95 69 C-95.0309375 67.5459375 -95.0309375 67.5459375 -95.0625 66.0625 C-95 63 -95 63 -94 62 C-93.02417969 62.02320313 -92.04835938 62.04640625 -91.04296875 62.0703125 C-83.42285352 62.17839924 -78.39098317 61.65756753 -72.6875 56.125 C-70.72410571 54.13971034 -68.85599676 52.08536746 -67 50 C-66.1028125 49.04480469 -65.205625 48.08960938 -64.28125 47.10546875 C-61.1108871 43.69159907 -58.03572037 40.20564325 -55 36.671875 C-53.35639006 34.75905309 -51.68581033 32.87557432 -50 31 C-48.9171875 29.7625 -48.9171875 29.7625 -47.8125 28.5 C-44.49579136 26.73108872 -43.00977166 27.0047728 -39.3125 27.25 C-32.9757189 27.44414158 -30.00911385 25.67608782 -25.37890625 21.484375 C-21.28948713 17.21365158 -17.62547504 12.66528624 -14 8 C-6.71922342 -0.87101044 -6.71922342 -0.87101044 0 0 Z "/>
</svg>
