<?xml version="1.0" encoding="UTF-8"?>
<svg version="1.1" xmlns="http://www.w3.org/2000/svg" width="988" height="250">
<path d="M0 0 C326.04 0 652.08 0 988 0 C988 82.5 988 165 988 250 C661.96 250 335.92 250 0 250 C0 167.5 0 85 0 0 Z " fill="#FEFEFE" transform="translate(0,0)"/>
<path d="M0 0 C6.33852467 2.18967216 9.18391939 7.39281015 12.02604675 13.18031311 C13.54690198 16.37775497 15.03159791 19.5906694 16.5 22.8125 C17.68669697 25.41487765 18.88778238 28.00989274 20.09765625 30.6015625 C20.88088257 32.31786865 20.88088257 32.31786865 21.67993164 34.06884766 C24.60262167 39.25490717 28.58546101 42.46684385 33.5 45.6875 C37.97008585 48.77100087 41.05581699 51.48150387 43.56054688 56.38696289 C47.38378766 63.55553936 51.82258544 67.14672573 58.6875 71.3125 C60.5769472 72.5264286 62.46498979 73.74254644 64.3515625 74.9609375 C66.04593111 76.03794471 67.7411228 77.11365926 69.4375 78.1875 C77.67135569 83.41629887 81.51610221 89.34857426 86.25317383 97.67138672 C90.17407393 104.32255436 94.44676535 107.84265088 101.4375 111.1875 C105.57569584 113.58107967 108.33897658 115.75728389 110.4375 120.1875 C110.4375 120.8475 110.4375 121.5075 110.4375 122.1875 C118.52514496 120.18689843 126.16087576 117.50722913 133.875 114.375 C134.91720703 113.96185547 135.95941406 113.54871094 137.03320312 113.12304688 C152.49794451 107.57270212 152.49794451 107.57270212 163.625 96.3125 C164.43607682 95.0703044 165.25513772 93.83328593 166.08203125 92.6015625 C166.47600098 92.0127832 166.8699707 91.42400391 167.27587891 90.81738281 C172.59456164 83.35468295 180.846021 78.08291265 189.4375 75.1875 C195.49559483 74.21287595 201.25770506 74.03089302 206.6875 77.1875 C210.22459224 79.80567755 213.39654214 82.85265782 216.63671875 85.82421875 C220.16887659 88.80463087 223.89549274 91.42541881 227.6875 94.0625 C249.21615168 109.08018536 249.21615168 109.08018536 257.4375 119.1875 C262.64324023 125.51465819 268.44668465 132.52389488 276.4375 135.1875 C276.4375 134.5275 276.4375 133.8675 276.4375 133.1875 C284.66169013 133.56411361 291.23749034 136.26840848 298.75 139.5 C308.72078198 143.73155728 318.67710053 147.48151419 329.0625 150.5625 C336.7943579 153.19551107 342.73432873 157.25232577 348.3125 163.1875 C353.37802109 168.49233705 358.74203813 171.34834113 365.4375 174.1875 C369.13591819 175.77130335 372.83300444 177.35638306 376.515625 178.9765625 C377.54429687 179.42902344 377.54429687 179.42902344 378.59375 179.890625 C380.00555258 180.51223957 381.41700363 181.13465306 382.828125 181.7578125 C387.55990252 183.83692687 391.02243032 185.34850465 396.19140625 185.00390625 C413.71504602 184.16706922 413.71504602 184.16706922 419.6875 189.125 C420.96823294 190.45013792 422.2270672 191.79785264 423.4375 193.1875 C425.82678094 194.38214047 427.40079894 194.25481608 430.0625 194.3125 C436.1544879 194.84223808 439.465325 197.72853885 443.4375 202.1875 C444.0975 203.1775 444.7575 204.1675 445.4375 205.1875 C125.9975 205.1875 -193.4425 205.1875 -522.5625 205.1875 C-519.43708523 202.84343892 -516.48768435 200.99336175 -513.125 199.0625 C-508.34797455 196.0744801 -505.9429041 193.46971643 -503.7578125 188.30078125 C-500.94975204 183.33620377 -496.4391266 181.56499545 -491.25 179.8125 C-487.10621683 178.30397669 -483.77965285 176.86960153 -480.375 174.0625 C-476.81694318 171.13233556 -473.49947047 170.05049384 -469.07421875 168.8984375 C-466.56221362 168.18741894 -464.30914022 167.27331118 -461.9375 166.1875 C-461.19242188 165.85234375 -460.44734375 165.5171875 -459.6796875 165.171875 C-457.79135689 164.29390578 -455.92510515 163.36880258 -454.0625 162.4375 C-449.92075004 160.86790825 -445.90928877 161.20762923 -441.5625 161.375 C-432.91189087 161.66532084 -426.30781559 159.41475859 -418.47436523 155.97119141 C-416.50745389 155.16493609 -414.53540501 154.53454302 -412.50390625 153.91015625 C-406.41654126 151.92537161 -400.69082344 149.13674548 -394.93286133 146.36425781 C-393.00617091 145.4404588 -391.07094867 144.53651177 -389.13476562 143.6328125 C-382.0916034 140.28799247 -376.15712754 136.69893605 -370.5625 131.1875 C-366.63371631 127.81129639 -362.56054337 125.3424595 -358 122.9375 C-357.26837646 122.55053955 -356.53675293 122.1635791 -355.78295898 121.76489258 C-346.12968209 116.78245789 -335.98091673 113.00874737 -325.84057617 109.15234375 C-324.94959229 108.806875 -324.0586084 108.46140625 -323.140625 108.10546875 C-321.92681152 107.63983521 -321.92681152 107.63983521 -320.68847656 107.16479492 C-316.43630889 105.21010645 -314.06993684 101.88341338 -311.375 98.1875 C-309.21314229 95.51406403 -307.19732929 94.46315939 -304.046875 93.1328125 C-297.52182456 89.96807736 -292.98678926 85.23615645 -288 80.0625 C-287.11892578 79.175625 -286.23785156 78.28875 -285.33007812 77.375 C-280.88502433 72.84793414 -276.7303076 68.22786082 -272.78515625 63.2578125 C-264.90560842 53.50061467 -253.44754606 49.83649512 -241.36328125 47.59375 C-232.44665409 47.07307104 -224.94497774 51.21414785 -218.30078125 56.87109375 C-214.94455664 59.86603912 -211.74829987 63.01347033 -208.5625 66.1875 C-207.52160633 67.20391721 -206.47995584 68.21956004 -205.4375 69.234375 C-196.65067647 77.85834731 -196.65067647 77.85834731 -193.5625 82.1875 C-193.5625 83.1775 -193.5625 84.1675 -193.5625 85.1875 C-192.58410156 85.0946875 -191.60570312 85.001875 -190.59765625 84.90625 C-180.01293076 84.32341359 -180.01293076 84.32341359 -175.80859375 86.828125 C-173.63156416 88.87263975 -171.60168501 91.00682052 -169.5625 93.1875 C-166.33790635 95.66377023 -163.24277697 97.03347503 -159.25 97.9375 C-150.73256477 96.20514029 -144.42853003 88.15133841 -138.56494141 82.1394043 C-136.19511019 79.71197835 -133.81835753 77.29161246 -131.4375 74.875 C-130.5909082 74.01414795 -129.74431641 73.1532959 -128.87207031 72.26635742 C-124.56678062 67.95488907 -120.49777819 64.19205147 -115.3125 61 C-109.91450066 57.48173541 -108.1126836 52.77759487 -106.19238281 46.81958008 C-104.84998727 42.96321841 -103.68199907 40.8624247 -99.97045898 38.97314453 C-95.55766545 36.92299305 -91.90317944 36.74877547 -87.109375 37.0078125 C-85.50391882 37.04867407 -83.89844951 37.08902238 -82.29296875 37.12890625 C-79.80686177 37.21544331 -77.32168013 37.31209992 -74.83642578 37.42041016 C-63.91876973 37.86076068 -55.97111314 37.50208266 -46.5625 31.1875 C-45.94181641 30.78305664 -45.32113281 30.37861328 -44.68164062 29.96191406 C-43.2228989 28.95208599 -41.82663992 27.85361699 -40.4375 26.75 C-36.90912926 24.00317252 -33.3828035 21.33037836 -29.6875 18.8125 C-24.82815982 15.46041881 -20.22444768 11.81804461 -15.64697266 8.09423828 C-5.94929624 0.31312085 -5.94929624 0.31312085 0 0 Z " fill="#010101" transform="translate(530.5625,29.8125)"/>
<path d="M0 0 C0 3 0 3 -1.60473633 4.9453125 C-2.33974365 5.66460937 -3.07475098 6.38390625 -3.83203125 7.125 C-4.63060547 7.91390625 -5.42917969 8.7028125 -6.25195312 9.515625 C-7.09693359 10.33546875 -7.94191406 11.1553125 -8.8125 12 C-9.64587891 12.81984375 -10.47925781 13.6396875 -11.33789062 14.484375 C-12.89093808 16.01122648 -14.44703623 17.53498521 -16.00708008 19.0546875 C-17.68378242 20.69133631 -19.34764834 22.33883319 -21 24 C-21.66 23.34 -22.32 22.68 -23 22 C-21.989375 21.154375 -20.97875 20.30875 -19.9375 19.4375 C-12.9400442 13.33845173 -6.5184378 6.6011914 0 0 Z " fill="#202020" transform="translate(409,95)"/>
</svg>
