<?xml version="1.0" encoding="UTF-8"?>
<svg version="1.1" xmlns="http://www.w3.org/2000/svg" width="1011" height="291">
<path fill="#151515" stroke="white" stroke-width="2" transform="translate(213.05078125,18.46875)" d="M0 0 C0.74636719 0.0103125 1.49273437 0.020625 2.26171875 0.03125 C3.36966797 0.01578125 3.36966797 0.01578125 4.5 0 C8.19398468 0.80124708 10.16589874 1.94984936 12.94921875 4.53125 C13.73716374 7.61461215 13.6523002 10.61407107 13.57421875 13.78125 C13.46719845 20.5984429 13.92011376 25.8302577 17.94921875 31.53125 C20.65424405 34.21935292 20.65424405 34.21935292 23.63671875 36.46875 C28.74049155 40.83763345 28.74049155 40.83763345 29.7109375 44.0625 C29.78393479 45.61306316 29.8121015 47.16670339 29.78515625 48.71875 C29.86636719 49.6159375 29.86636719 49.6159375 29.94921875 50.53125 C30.77421875 51.005625 31.59921875 51.48 32.44921875 51.96875 C33.27421875 52.484375 34.09921875 53 34.94921875 53.53125 C35.18359375 55.46484375 35.18359375 55.46484375 35.19921875 57.90625 C35.42148341 63.0553812 37.14706028 65.46920807 40.32421875 69.46875 C44.35576 74.66089819 45.65080777 78.77736623 46.26171875 85.28125 C47.55444719 98.13833501 53.71925674 109.38047544 59.94921875 120.53125 C60.34028809 121.25119141 60.73135742 121.97113281 61.13427734 122.71289062 C63.86078543 127.16195551 66.60648333 128.65891005 71.4453125 129.97265625 C72.23035156 130.15699219 73.01539063 130.34132812 73.82421875 130.53125 C74.60152344 130.74652344 75.37882812 130.96179688 76.1796875 131.18359375 C81.04592101 132.43491094 85.01424629 132.93626569 89.94921875 131.53125 C92.31246978 129.87932578 94.16610035 128.39101349 96.19921875 126.40625 C96.75424072 125.87708984 97.3092627 125.34792969 97.88110352 124.80273438 C110.4503683 112.43235603 119.07481069 98.42853681 122.1965332 81.04785156 C124.25720772 70.56433917 129.0287469 60.41195778 134.94921875 51.53125 C136.00109375 51.28375 137.05296875 51.03625 138.13671875 50.78125 C146.06411113 48.76473995 151.15890971 39.88642326 155.76171875 33.65625 C156.88966281 32.13536939 158.021005 30.61700119 159.15625 29.1015625 C159.64585205 28.43914551 160.1354541 27.77672852 160.63989258 27.09423828 C161.94921875 25.53125 161.94921875 25.53125 163.94921875 24.53125 C165.89453125 25.30859375 165.89453125 25.30859375 168.07421875 26.46875 C169.35296875 27.149375 170.63171875 27.83 171.94921875 28.53125 C171.94921875 33.15125 171.94921875 37.77125 171.94921875 42.53125 C173.26921875 43.19125 174.58921875 43.85125 175.94921875 44.53125 C176.60921875 44.86125 177.26921875 45.19125 177.94921875 45.53125 C178.12961361 47.37955799 178.21757013 49.23718446 178.26171875 51.09375 C178.82595806 59.1652411 181.7341412 63.5266447 187.51171875 68.96875 C192.35632731 73.6027234 194.33799259 78.88531985 195.828125 85.3359375 C196.87133094 89.611837 198.55901211 93.32083279 200.57421875 97.21875 C200.92105713 97.90211426 201.26789551 98.58547852 201.62524414 99.28955078 C204.60025043 105.0575976 207.90909041 110.57558769 211.3828125 116.0546875 C213.55561817 119.48999622 214.0568867 121.16778547 214.01953125 125.1953125 C214.10605099 140.64957379 216.12555351 152.12761569 225.69921875 164.59375 C228.75453135 168.58863882 229.70202448 172.2674817 230.44921875 177.15625 C231.44121397 183.40518806 232.91627835 186.79228105 237.5234375 191.11328125 C238.22919922 191.81517578 238.22919922 191.81517578 238.94921875 192.53125 C238.94921875 193.19125 238.94921875 193.85125 238.94921875 194.53125 C239.93921875 194.86125 240.92921875 195.19125 241.94921875 195.53125 C244.58943354 198.7926918 245.90554991 200.73065466 246.13671875 204.96875 C247.82082062 212.35288895 256.04759906 215.62432324 262.10717773 219.43823242 C264.1894563 220.73620572 266.28132569 222.01739325 268.375 223.296875 C270.43588494 224.5590843 272.32533459 225.82037306 274.24609375 227.296875 C276.00573826 228.76386723 276.00573826 228.76386723 278.88671875 229.03125 C282.92466904 228.37199281 284.6063765 226.69588923 286.94921875 223.53125 C290.82990473 217.84921409 293.86243807 211.7558756 296.88671875 205.59375 C303.76521159 191.62002906 312.04405961 179.51886698 323.9453125 169.34375 C326.34420196 167.17399423 326.89583869 166.28094327 327.125 163.0625 C327.17011719 162.0621875 327.21523438 161.061875 327.26171875 160.03125 C327.73325091 153.87186119 329.33876573 149.0808102 331.94921875 143.53125 C332.22507812 142.82097656 332.5009375 142.11070312 332.78515625 141.37890625 C334.58159351 137.08558602 336.45528063 135.02880577 340.35546875 132.47265625 C345.78065525 128.36956944 347.13431057 124.08734826 348.76171875 117.65625 C349.28397553 115.76161126 349.81127458 113.86835478 350.34375 111.9765625 C350.59842041 111.06156982 350.85309082 110.14657715 351.11547852 109.20385742 C352.17070213 105.82127092 353.55332844 102.66804234 355.05004883 99.4609375 C356.11675723 97.17169959 357.00599198 94.83494219 357.88671875 92.46875 C361.70028079 82.91241218 361.70028079 82.91241218 364.94921875 79.53125 C366.26921875 79.53125 367.58921875 79.53125 368.94921875 79.53125 C370.51171875 81.17578125 370.51171875 81.17578125 371.94921875 83.34375 C374.06494928 86.53727397 374.06494928 86.53727397 377.11328125 88.76171875 C378.94921875 90.53125 378.94921875 90.53125 379.34765625 94.3125 C379.34985285 95.88543453 379.34133023 97.45840701 379.32421875 99.03125 C379.51612297 108.88832046 381.95239407 117.13559152 385.23095703 126.35791016 C385.89922588 128.37997993 386.42208119 130.37140045 386.8828125 132.44921875 C388.70019406 140.42308906 391.38022498 144.77939548 397.1484375 150.5390625 C400.49842641 153.96370627 403.14210164 157.82507048 405.82421875 161.78125 C406.27611572 162.44302246 406.7280127 163.10479492 407.19360352 163.78662109 C411.0728978 169.55315916 414.84438793 175.19861752 416.69921875 181.96875 C416.9415625 182.83371094 417.18390625 183.69867188 417.43359375 184.58984375 C417.60375 185.23050781 417.77390625 185.87117187 417.94921875 186.53125 C422.52954573 187.86768321 422.52954573 187.86768321 426.94921875 186.54296875 C432.00837584 182.87705609 436.18024288 178.49176308 439.94921875 173.53125 C440.60664062 172.70238281 441.2640625 171.87351563 441.94140625 171.01953125 C446.37527787 164.63582452 447.2521777 160.15934369 446.76171875 152.65625 C446.27312873 144.42942802 448.04427747 138.35800256 451.51171875 130.90625 C452.13880737 129.55684326 452.13880737 129.55684326 452.77856445 128.18017578 C455.67519504 122.32814397 458.989684 115.88218381 463.94921875 111.53125 C466.83436035 111.17923254 468.26038106 111.01259574 470.609375 112.78125 C471.07214844 113.35875 471.53492188 113.93625 472.01171875 114.53125 C472.70974609 115.3665625 472.70974609 115.3665625 473.421875 116.21875 C477.29826721 122.08786557 479.5859739 128.20490666 481.57421875 134.90625 C484.71506501 144.88846085 489.58700233 153.59197432 494.94921875 162.53125 C495.58988281 163.6140625 496.23054687 164.696875 496.890625 165.8125 C497.881465 167.47424612 498.87967784 169.13165917 499.890625 170.78125 C501.83865665 174.00161228 502.20496981 176.41442582 502.63671875 180.15625 C503.87313519 188.46313675 506.77238798 195.81314432 509.94921875 203.53125 C510.21847168 204.19995117 510.48772461 204.86865234 510.76513672 205.55761719 C513.58191524 213.92917327 513.58191524 213.92917327 518.94921875 220.53125 C527.96771837 223.06598105 537.15318488 217.46090989 544.94921875 213.53125 C546.02945313 212.99113281 547.1096875 212.45101562 548.22265625 211.89453125 C555.61135273 207.88989654 561.58578587 202.74572445 567.53955078 196.90136719 C568.84798518 195.62964328 570.19225804 194.39507834 571.5390625 193.1640625 C582.85488589 182.54542254 590.28928985 169.80408064 596.51367188 155.71362305 C599.27060113 149.54516996 602.02178099 144.74467855 607.51171875 140.59375 C617.70369987 131.96976597 621.95999219 112.76558374 625.94921875 100.34375 C630.04820538 87.83098428 634.33112434 77.24412522 646.15234375 70.22265625 C648.77645525 67.75256868 648.70101296 65.55685366 649.07421875 62.03125 C649.76028488 55.81465081 649.76028488 55.81465081 651.94921875 52.53125 C657.36491163 53.21984325 659.25615461 55.3270367 662.6640625 59.41015625 C676.25021112 77.9662806 686.11271227 100.63439092 693.76171875 122.23828125 C694.86763001 125.30500228 696.12119817 128.2431539 697.44921875 131.21875 C700.17895848 137.56779321 701.89333857 144.18499082 703.54296875 150.88354492 C705.25443035 157.38526528 707.99776142 162.13283212 711.94921875 167.53125 C712.86122455 168.86326482 713.76761569 170.19914368 714.66796875 171.5390625 C715.34303467 172.53607178 715.34303467 172.53607178 716.03173828 173.55322266 C723.14658025 184.10906983 729.74794397 194.94985321 736.32568359 205.84570312 C746.80919202 223.70925787 746.80919202 223.70925787 760.8828125 238.69921875 C764.56998674 241.96818797 767.9527254 245.61827597 770.94921875 249.53125 C770.94921875 250.19125 770.94921875 250.85125 770.94921875 251.53125 C453.15921875 251.53125 135.36921875 251.53125 -192.05078125 251.53125 C-189.16751255 249.36879848 -186.78511895 247.76569993 -183.64453125 246.15625 C-182.81824219 245.72828125 -181.99195313 245.3003125 -181.140625 244.859375 C-179.4140625 243.97395833 -177.6875 243.08854167 -175.9609375 242.203125 C-175.13464844 241.77515625 -174.30835938 241.3471875 -173.45703125 240.90625 C-172.70744141 240.52210938 -171.95785156 240.13796875 -171.18554688 239.7421875 C-168.9862471 238.56399885 -168.9862471 238.56399885 -166.95019531 236.88745117 C-164.26343098 234.96907381 -162.51483875 235.42286152 -159.30078125 235.84375 C-158.3159375 235.96363281 -157.33109375 236.08351562 -156.31640625 236.20703125 C-155.56875 236.31402344 -154.82109375 236.42101562 -154.05078125 236.53125 C-153.78652344 235.93828125 -153.52226562 235.3453125 -153.25 234.734375 C-152.007077 232.45095946 -150.74676479 231.05698277 -148.86328125 229.28125 C-145.68102139 226.19103898 -142.74170698 222.97567875 -139.859375 219.60546875 C-138.65527942 218.22452976 -137.41765168 216.87211921 -136.1484375 215.55078125 C-131.27429298 210.40638713 -127.84865123 204.9740157 -124.35620117 198.86279297 C-121.54112121 194.0539798 -118.65706891 190.76545197 -114.05078125 187.53125 C-114.05078125 188.19125 -114.05078125 188.85125 -114.05078125 189.53125 C-109.38657752 186.76580722 -106.96169738 184.38955883 -104.11328125 179.65625 C-100.489282 173.97911049 -96.84702157 169.8923263 -91.12890625 166.3359375 C-87.68231692 163.95750602 -86.25066542 162.53925484 -85.4140625 158.3203125 C-85.29417969 157.11117187 -85.17429687 155.90203125 -85.05078125 154.65625 C-84.3105781 147.37631391 -82.44403265 144.2917192 -77.05078125 139.53125 C-76.25414062 138.76683594 -75.4575 138.00242188 -74.63671875 137.21484375 C-70.10528149 132.94406438 -65.46184402 129.0472308 -60.4855957 125.31713867 C-52.94758649 119.63684721 -48.9511965 115.43889026 -47.17578125 106.09375 C-46.1505052 100.82090172 -43.59520456 96.54204479 -40.05078125 92.53125 C-39.36757812 92.19996094 -38.684375 91.86867188 -37.98046875 91.52734375 C-35.50164298 90.24778794 -35.13325421 89.05856885 -34.05078125 86.53125 C-32.78501261 84.5123293 -31.48195526 82.521639 -30.171875 80.53125 C-28.16899109 76.95816093 -27.92191184 73.57893845 -27.83984375 69.53125 C-27.81148437 68.56058594 -27.783125 67.58992188 -27.75390625 66.58984375 C-27.70262539 64.58219806 -27.6581312 62.57436521 -27.62109375 60.56640625 C-27.23392583 48.28995682 -23.92531658 38.31707253 -18.30078125 27.46875 C-17.55054688 25.97118164 -17.55054688 25.97118164 -16.78515625 24.44335938 C-5.00956621 1.2977162 -5.00956621 1.2977162 0 0 Z "/>
</svg>
