<?xml version="1.0" encoding="UTF-8"?>
<svg version="1.1" xmlns="http://www.w3.org/2000/svg" width="894" height="269">
<path  fill="#151515" stroke="white" transform="translate(451,20)" d="M0 0 C4.93868921 2.65929419 6.28217191 5.44851036 8.50390625 10.50390625 C12.03069812 17.68875477 16.94888681 22.70130691 22.6875 28.1875 C23.64776409 29.13477219 24.60675594 30.08333586 25.56445312 31.03320312 C32.06603697 37.38754658 35.34734274 39.18888042 44.5 39.25 C45.27214844 39.270625 46.04429687 39.29125 46.83984375 39.3125 C51.10238381 39.51449512 51.10238381 39.51449512 54.62304688 37.48339844 C55.30463867 36.74911621 55.30463867 36.74911621 56 36 C57.9375 35.9375 57.9375 35.9375 60 37 C60.5775 37.99 61.155 38.98 61.75 40 C63.77304404 43.43229706 63.77304404 43.43229706 67.875 43.5625 C68.5659375 43.60246094 69.256875 43.64242187 69.96875 43.68359375 C73.67768662 44.26133195 75.54571812 46.31197699 78 49 C79.62542813 52.94746832 80.08509778 56.66575127 80.4375 60.875 C81.10925045 68.49589304 83.30309229 74.93947392 88 81 C90.44012594 82.22006297 92.14095875 82.1724454 94.8671875 82.24609375 C95.83527344 82.27896484 96.80335938 82.31183594 97.80078125 82.34570312 C99.84234164 82.40666459 101.88401415 82.46398501 103.92578125 82.51757812 C104.89644531 82.55173828 105.86710938 82.58589844 106.8671875 82.62109375 C107.75519043 82.6461499 108.64319336 82.67120605 109.55810547 82.69702148 C112.18324615 83.0227363 113.78773669 83.56073208 116 85 C117.58142782 87.41437139 119.02203195 89.80508286 120.4375 92.3125 C123.96968872 98.32114096 127.77360191 103.13177141 132.875 107.875 C137.50639862 112.18699182 140.52296729 115.7225077 142.2890625 121.9765625 C143.10357298 124.29478464 144.16194954 125.40566894 146 127 C146.33 126.67 146.66 126.34 147 126 C154.14941555 124.13788987 161.58027243 123.65243144 168.9375 123.375 C169.75395996 123.31562256 170.57041992 123.25624512 171.41162109 123.19506836 C173.84910129 123.14702308 175.68718191 123.2180189 178 124 C181.38549932 127.47165343 183.31773919 131.97673234 184.5625 136.625 C186.06011878 141.50488142 188.24031618 145.24031618 191.875 148.875 C194.81751503 150.43280208 196.7035661 150.39557207 200 150 C202.03144641 149.06553465 204.03533587 148.06775224 206 147 C211.23063495 145.37096751 217.82392478 144.63518053 222.9453125 146.8359375 C226.67636104 149.62953666 227.86880079 152.85875503 229.23828125 157.0859375 C230.6905597 160.73525259 233.62437136 162.94008941 236.66796875 165.28515625 C240.35717655 168.20883307 242.7590667 170.96317083 245.125 175.0625 C248.2508644 180.73593514 248.2508644 180.73593514 253 185 C267.62134292 187.18676976 283.17029301 179.28597172 294.75 170.8125 C299.13652276 167.18082819 302.82320168 162.88209435 306.60791016 158.64477539 C310.79126695 154.03282364 316.40579145 148.26459091 322.97119141 147.88647461 C323.75671387 147.89171143 324.54223633 147.89694824 325.3515625 147.90234375 C326.20234375 147.90556641 327.053125 147.90878906 327.9296875 147.91210938 C328.81914063 147.92048828 329.70859375 147.92886719 330.625 147.9375 C331.5221875 147.94201172 332.419375 147.94652344 333.34375 147.95117188 C335.56256648 147.96297409 337.78125018 147.97943845 340 148 C340.39058594 149.13115234 340.39058594 149.13115234 340.7890625 150.28515625 C342.02868425 153.06430823 343.15101373 154.4126042 345.375 156.4375 C349.47921402 160.37992965 352.30815824 164.2075009 354.375 169.5625 C357.46489655 176.09881962 363.14818975 178.85330098 369.5 181.625 C371.40491623 182.47932607 373.30881592 183.33575812 375.2109375 184.19628906 C376.8743371 184.94354773 378.54624361 185.67179031 380.21875 186.3984375 C383.34858398 188.20072954 384.77501913 190.19249461 387 193 C389.72474129 194.72301141 389.72474129 194.72301141 392.75 196.0625 C393.80960938 196.57167969 394.86921875 197.08085937 395.9609375 197.60546875 C397.74651757 198.4248159 399.54041475 199.22711783 401.3515625 199.98828125 C407.01212286 202.4688743 409.56464057 205.97402209 413 211 C416.83510333 215.99694429 420.7960228 219.46129551 426 223 C426 223.33 426 223.66 426 224 C139.89 224 -146.22 224 -441 224 C-434.20808929 210.41617858 -421.68108514 197.75356549 -407.20458984 192.82006836 C-406.14425537 192.47600952 -406.14425537 192.47600952 -405.0625 192.125 C-404.2988916 191.87306885 -403.5352832 191.6211377 -402.74853516 191.36157227 C-396.19479977 189.26018067 -389.55855823 187.57061521 -382.875 185.9375 C-358.50870874 180.61574372 -358.50870874 180.61574372 -341 164 C-340.4534375 163.03964844 -339.906875 162.07929688 -339.34375 161.08984375 C-334.20090785 152.12255754 -327.9778203 145.61473021 -320.55029297 138.51269531 C-316.95835501 135.00786892 -313.72637628 131.17126877 -310.60546875 127.24609375 C-300.76370006 115.12689098 -286.73636038 107.45105244 -271.984375 102.92578125 C-258.82788031 99.41977769 -258.82788031 99.41977769 -248.90234375 91.13671875 C-247.37935881 87.87648862 -246.18330391 84.56777608 -245.078125 81.14453125 C-243.07236322 75.05326288 -241.76835196 71.15626805 -236 68 C-232.8404606 67.33571521 -230.1519216 67.26946116 -227 68 C-224.5 70.125 -224.5 70.125 -222 73 C-217.78320267 76.24560582 -213.54282074 78.87246316 -208.5625 80.75 C-201.01629957 83.91071222 -195.85446077 90.80781008 -190.625 96.875 C-187.5019785 100.47905562 -184.29350498 103.9892461 -181 107.4375 C-180.51354004 107.97036621 -180.02708008 108.50323242 -179.52587891 109.05224609 C-176.88373667 111.77196875 -175.039428 112.98912769 -171.359375 114.00390625 C-166.66916055 113.99845251 -165.48172344 112.68198076 -162.21875 109.55078125 C-159.49070307 106.41448786 -157.14020688 103.08386451 -154.75 99.6875 C-149.73294207 92.60908185 -143.42656418 83.73633695 -134.62890625 81.359375 C-132.31692263 81.3099208 -130.28167305 81.62873287 -128 82 C-119.44400785 83.30455253 -111.96190943 82.54815027 -103.5 80.875 C-102.3346875 80.67390625 -101.169375 80.4728125 -99.96875 80.265625 C-98.855 80.05164063 -97.74125 79.83765625 -96.59375 79.6171875 C-95.59021484 79.42753418 -94.58667969 79.23788086 -93.55273438 79.04248047 C-90.25651826 77.69637844 -89.47387103 76.17739245 -88 73 C-87.58381894 70.93452831 -87.58381894 70.93452831 -87.5625 68.9375 C-87 65 -87 65 -85.4375 62.75 C-82.85850331 60.89841263 -80.18498811 59.59763693 -77.3125 58.26171875 C-74.60397127 56.78392351 -72.35420762 54.97932315 -69.9375 53.0625 C-64.36904243 48.86473968 -59.00786685 47.0564805 -52.3828125 45.203125 C-48.16892002 43.70441959 -45.23841494 41.86531442 -42.7421875 38.10546875 C-42.45601563 37.47253906 -42.16984375 36.83960938 -41.875 36.1875 C-41.55273438 35.49269531 -41.23046875 34.79789063 -40.8984375 34.08203125 C-40.08086398 32.18739349 -39.28898723 30.28171913 -38.5 28.375 C-36.97510802 24.94399305 -35.07847825 22.11771738 -33 19 C-32.45647318 17.7387057 -31.93541704 16.46748568 -31.4375 15.1875 C-30.7259375 13.6096875 -30.7259375 13.6096875 -30 12 C-28.515 11.505 -28.515 11.505 -27 11 C-27 10.34 -27 9.68 -27 9 C-7.66943522 -2.30232558 -7.66943522 -2.30232558 0 0 Z "/>
</svg>
