<?xml version="1.0" encoding="UTF-8"?>
<svg version="1.1" xmlns="http://www.w3.org/2000/svg" width="1417" height="300">
<path d="M0 0 C467.61 0 935.22 0 1417 0 C1417 99 1417 198 1417 300 C949.39 300 481.78 300 0 300 C0 201 0 102 0 0 Z " fill="#FEFEFE" transform="translate(0,0)"/>
<path d="M0 0 C5.95258349 3.17857844 11.70256465 6.71748586 17.45239258 10.24584961 C18.27376709 10.74866455 19.0951416 11.25147949 19.94140625 11.76953125 C21.04101685 12.44894775 21.04101685 12.44894775 22.1628418 13.14208984 C29.95144771 17.54184948 43.12524324 16.05204619 51.5546875 13.93359375 C53.41311412 13.38533216 55.26749455 12.82313471 57.1171875 12.24609375 C59.05377742 11.74258037 60.99126829 11.24251818 62.9296875 10.74609375 C66.01530497 9.90053717 68.94236605 8.97989546 71.8671875 7.68359375 C83.04950255 2.73756979 97.6411638 2.11196762 109.3671875 5.68359375 C115.7163985 8.23590442 121.73702421 11.59713337 127.73828125 14.87109375 C148.33188402 27.07665506 148.33188402 27.07665506 171.1171875 31.24609375 C176.85170588 29.0689689 182.09891015 26.13621965 187.4296875 23.12109375 C189.0297958 22.22238535 190.63004914 21.32393514 192.23046875 20.42578125 C192.92954346 20.03116699 193.62861816 19.63655273 194.34887695 19.22998047 C198.60375045 16.86257191 202.31864725 16.53599587 207.1171875 17.24609375 C221.45574198 22.34376441 231.91674794 35.75780065 241.1171875 47.24609375 C243.39554953 49.96573853 245.73102492 52.62078347 248.1171875 55.24609375 C249.09365234 56.35597656 249.09365234 56.35597656 250.08984375 57.48828125 C257.23592981 65.19204735 266.69843043 71.89878474 277.48608398 72.40380859 C278.82009538 72.42525109 280.15417393 72.44275451 281.48828125 72.45703125 C282.96550509 72.48514123 284.44271845 72.51380586 285.91992188 72.54296875 C288.22321805 72.58384271 290.52632768 72.62076508 292.82983398 72.64746094 C302.64649284 72.77079381 311.60132918 73.54877211 321.1171875 76.24609375 C321.99197754 76.48303955 322.86676758 76.71998535 323.76806641 76.96411133 C331.36520221 79.1189486 338.68995287 81.9346659 345.703125 85.5703125 C356.1329872 90.81955594 364.83718335 92.89312147 376.5546875 92.93359375 C398.58615331 93.0101379 410.68147388 103.55032714 426.515625 117.47851562 C447.15196867 135.44452497 471.42679403 142.98101391 498.1171875 147.24609375 C500.03012681 147.56533614 501.9428776 147.88570961 503.85546875 148.20703125 C508.19882323 148.93265298 512.54554947 149.63318989 516.89453125 150.32421875 C541.38492539 154.28080365 562.98596678 161.1106808 585.71923828 170.80371094 C596.70929808 175.4688405 607.69438215 180.1028961 619.1953125 183.359375 C621.48537373 184.05435347 623.65939016 184.82169639 625.88671875 185.68359375 C630.37078959 187.38940948 634.92229811 188.69604662 639.5546875 189.93359375 C640.34939453 190.15853516 641.14410156 190.38347656 641.96289062 190.61523438 C648.20652366 192.28663817 654.95767113 193.86095767 660.9296875 190.80859375 C661.6515625 190.29296875 662.3734375 189.77734375 663.1171875 189.24609375 C673.63483286 185.74809035 685.05991004 188.75353438 695.1171875 192.24609375 C696.29269165 192.64006348 696.29269165 192.64006348 697.49194336 193.04199219 C705.38146617 195.77473261 712.82234135 199.32311011 720.3046875 202.99609375 C721.59736637 203.62534712 722.89025552 204.25416869 724.18334961 204.88256836 C731.49406339 208.44147442 738.77076012 212.06506997 746.0222168 215.74316406 C751.5981807 218.54471944 757.31360283 220.95983312 763.1171875 223.24609375 C763.1171875 223.57609375 763.1171875 223.90609375 763.1171875 224.24609375 C308.3771875 224.24609375 -146.3628125 224.24609375 -614.8828125 224.24609375 C-610.85889749 221.02696174 -607.95957943 219.13898522 -603.40625 217.03125 C-602.46014107 216.59283028 -602.46014107 216.59283028 -601.49491882 216.14555359 C-599.42021978 215.19006796 -597.3398305 214.24801593 -595.2578125 213.30859375 C-594.54205048 212.98338745 -593.82628845 212.65818115 -593.08883667 212.32312012 C-581.54048773 207.09405249 -569.83768034 202.38284735 -557.9453125 197.99609375 C-556.84071686 197.58824142 -556.84071686 197.58824142 -555.71380615 197.17214966 C-548.54282834 194.53688611 -541.36717039 192.01576709 -534.02441406 189.89379883 C-531.34107392 189.08225056 -528.74898994 188.09292309 -526.13427734 187.08544922 C-521.03817308 185.18560033 -515.85598763 183.52309425 -510.6953125 181.80859375 C-509.55255859 181.42638672 -508.40980469 181.04417969 -507.23242188 180.65039062 C-499.48195414 178.06982223 -491.69684505 175.6263399 -483.8828125 173.24609375 C-481.27697704 172.43882219 -478.67370461 171.62374036 -476.0703125 170.80859375 C-474.29720703 170.25365234 -474.29720703 170.25365234 -472.48828125 169.6875 C-471.80636719 169.47383789 -471.12445313 169.26017578 -470.421875 169.04003906 C-468.43277095 168.41806153 -466.44306254 167.79801667 -464.453125 167.17871094 C-454.90649648 164.20604755 -445.37312031 161.19374108 -435.85644531 158.12646484 C-434.29497729 157.62426297 -432.73280357 157.12424985 -431.16992188 156.62646484 C-420.2242264 153.1389556 -409.4964609 149.27405325 -398.82681274 145.01620483 C-394.9892204 143.49595173 -391.12548857 142.04460064 -387.265625 140.58203125 C-355.33600171 127.97241097 -325.76313917 114.46499292 -301.47265625 89.78515625 C-300.30488647 88.60155518 -300.30488647 88.60155518 -299.11352539 87.39404297 C-297.58522533 85.83834153 -296.06438602 84.27526184 -294.55249023 82.70361328 C-287.4889589 75.49198458 -279.75099428 69.88327858 -270.6953125 65.43359375 C-269.00341797 64.58861328 -269.00341797 64.58861328 -267.27734375 63.7265625 C-260.76979568 60.88840287 -255.13810151 59.9096179 -248.1328125 59.99609375 C-247.33641357 60.00286133 -246.54001465 60.00962891 -245.71948242 60.01660156 C-235.74449993 60.19090787 -226.75996283 62.51106092 -217.16015625 65.09375 C-216.47808105 65.27695801 -215.79600586 65.46016602 -215.09326172 65.64892578 C-213.54422342 66.06740907 -211.99647139 66.49066911 -210.44970703 66.91748047 C-207.82874483 67.63301463 -205.2007515 68.31630921 -202.5703125 68.99609375 C-201.77834473 69.21885986 -200.98637695 69.44162598 -200.17041016 69.67114258 C-185.28595641 73.42839765 -170.49543743 71.12376115 -155.8203125 67.68359375 C-154.20046582 67.31776507 -152.58042691 66.95278661 -150.96020508 66.58862305 C-137.80523604 63.59781584 -124.79664553 60.15016177 -111.8828125 56.24609375 C-111.08069336 56.00761719 -110.27857422 55.76914063 -109.45214844 55.5234375 C-104.90394353 54.16922932 -100.38584038 52.7453309 -95.8828125 51.24609375 C-94.94566406 50.94445312 -94.00851562 50.6428125 -93.04296875 50.33203125 C-78.35370587 45.12628323 -69.95759926 32.57873595 -61.8203125 20.05859375 C-58.01633945 14.2569608 -53.74140658 9.19052872 -48.8828125 4.24609375 C-47.91214844 3.25609375 -47.91214844 3.25609375 -46.921875 2.24609375 C-31.83063636 -12.04438529 -16.86741256 -8.72568546 0 0 Z " fill="#000000" transform="translate(632.8828125,39.75390625)"/>
<path d="M0 0 C4.95 1.98 4.95 1.98 10 4 C10 4.33 10 4.66 10 5 C6.7 5 3.4 5 0 5 C0 3.35 0 1.7 0 0 Z " fill="#111111" transform="translate(1386,259)"/>
</svg>
