<?xml version="1.0" encoding="UTF-8"?>
<svg version="1.1" xmlns="http://www.w3.org/2000/svg" width="477" height="279">
<!-- <path d="M0 0 C157.41 0 314.82 0 477 0 C477 92.07 477 184.14 477 279 C319.59 279 162.18 279 0 279 C0 186.93 0 94.86 0 0 Z " fill="#FDFDFD" transform="translate(0,0)"/> -->
<path fill="#151515" stroke="white" stroke-width="2" transform="translate(304,15)" d="M0 0 C38.7273635 20.13215486 61.24762242 74.40936779 77.40429688 112.29272461 C102.11955101 172.61724043 102.11955101 172.61724043 145.4375 219.3125 C146.283125 219.869375 147.12875 220.42625 148 221 C148 221.66 148 222.32 148 223 C148.86625 223.37125 148.86625 223.37125 149.75 223.75 C152 225 152 225 156 229 C9.48 229 -137.04 229 -288 229 C-284.57675364 225.57675364 -281.54983675 223.39863408 -277.4375 221.0625 C-263.24278608 212.7595646 -249.88408018 203.19989681 -237 193 C-235.88612118 192.13060703 -234.77151852 191.26214078 -233.65625 190.39453125 C-225.29019013 183.87416967 -217.04824879 177.20545191 -208.83496094 170.49414062 C-207.15879089 169.12929753 -205.47591045 167.77348188 -203.7890625 166.421875 C-202.84804687 165.66390625 -201.90703125 164.9059375 -200.9375 164.125 C-200.14214844 163.48820313 -199.34679687 162.85140625 -198.52734375 162.1953125 C-192.74200277 157.17002404 -187.85531793 151.86430291 -183.5 145.5625 C-183.00081055 144.8494873 -182.50162109 144.13647461 -181.98730469 143.40185547 C-176.86579144 135.98584164 -172.121663 128.33069536 -167.42773438 120.63891602 C-156.61118566 103.01178355 -144.60155637 85.01176757 -125.625 75.75 C-124.66078125 75.26015625 -123.6965625 74.7703125 -122.703125 74.265625 C-117.01208472 71.39721864 -111.24200195 68.7316569 -105.43310547 66.11230469 C-94.21267401 60.98283592 -86.28877253 55.45782427 -81.75 43.6875 C-80.4669798 39.81137145 -79.48502905 35.91303957 -78.5625 31.9375 C-76.38816993 22.83840134 -72.26739135 13.10632995 -64 8 C-55.21443793 4.02557906 -47.60821802 5.89694583 -38.9375 9 C-38.1940332 9.28552734 -37.45056641 9.57105469 -36.68457031 9.86523438 C-31.47101772 11.79651958 -26.56950772 12.97931631 -21 12 C-18.70939689 10.50693625 -18.70939689 10.50693625 -17.3125 8.25 C-12.71286642 2.30001527 -7.96301961 -1.90903111 0 0 Z "/>
</svg>
