<svg xmlns="http://www.w3.org/2000/svg" width="800" height="800" viewBox="0 0 800 800" version="1.1"><path d="M 162.589 21.077 L 160 24.153 160 47.694 L 160 71.235 163.750 74.973 C 167.321 78.532, 167.905 78.743, 176 79.401 C 180.675 79.780, 189.675 80.735, 196 81.524 C 207.967 83.015, 233.176 85.335, 282.500 89.486 C 298.450 90.829, 315.775 92.391, 321 92.959 C 326.225 93.527, 338.375 94.687, 348 95.537 C 357.625 96.388, 370.675 97.730, 377 98.519 C 388.534 99.959, 409.917 101.945, 463 106.506 C 478.675 107.852, 493.075 109.188, 495 109.475 C 496.925 109.761, 508.625 110.895, 521 111.993 C 533.375 113.092, 546.200 114.419, 549.500 114.941 C 552.800 115.463, 563.825 116.606, 574 117.481 C 584.175 118.355, 599.250 119.731, 607.500 120.537 C 629.253 122.664, 633.838 122.519, 637.500 119.590 L 640.500 117.190 640.500 95.675 L 640.500 74.161 638 71.489 C 636.625 70.019, 634.821 68.450, 633.991 68.002 C 633.161 67.554, 624.836 66.462, 615.491 65.576 C 606.146 64.690, 595.575 63.496, 592 62.923 C 588.425 62.350, 574.475 60.781, 561 59.437 C 547.525 58.093, 526.150 55.874, 513.500 54.505 C 452.250 47.878, 432.619 45.792, 410 43.511 C 396.525 42.152, 384.588 40.823, 383.472 40.557 C 382.357 40.291, 371.557 39.160, 359.472 38.043 C 347.388 36.926, 334.350 35.538, 330.500 34.959 C 326.650 34.380, 312.250 32.783, 298.500 31.411 C 284.750 30.038, 262.836 27.850, 249.801 26.548 C 236.767 25.247, 224.842 23.919, 223.301 23.597 C 221.019 23.122, 168.528 18, 165.934 18 C 165.518 18, 164.013 19.385, 162.589 21.077 M 214.265 97.092 C 212.100 98.488, 210.726 100.390, 210.113 102.839 C 209.591 104.924, 208.901 177.090, 208.509 270.500 C 208.131 360.700, 207.483 488.275, 207.070 554 C 206.253 683.875, 206.012 677.403, 211.771 680.381 C 214.019 681.544, 217.453 681.640, 231.004 680.919 C 260.078 679.372, 293.076 678.054, 353.024 676.045 C 385.213 674.966, 416.451 673.619, 422.442 673.051 C 428.433 672.483, 459.922 671.128, 492.418 670.038 C 560.809 667.746, 581.517 666.485, 584.729 664.417 C 585.955 663.627, 587.690 661.566, 588.584 659.837 C 590.069 656.966, 590.258 634.215, 590.758 397.924 C 591.199 189.910, 591.057 138.553, 590.036 136.086 C 587.710 130.470, 584.112 129.218, 565.429 127.518 C 556.118 126.671, 545.800 125.553, 542.500 125.034 C 539.200 124.514, 524.350 123.159, 509.500 122.022 C 494.650 120.884, 479.575 119.519, 476 118.987 C 472.425 118.456, 460.050 117.333, 448.500 116.492 C 436.950 115.651, 423.900 114.503, 419.500 113.940 C 408.998 112.598, 366.696 108.593, 331 105.561 C 315.325 104.230, 298.450 102.672, 293.500 102.099 C 288.550 101.526, 274.825 100.365, 263 99.519 C 251.175 98.674, 238.125 97.551, 234 97.025 C 217.255 94.888, 217.686 94.887, 214.265 97.092 M 238 160.554 L 238 184.252 250.250 172.312 C 256.988 165.746, 267 156.126, 272.500 150.936 C 278 145.746, 282.650 141.162, 282.833 140.750 C 283.017 140.338, 281.667 139.998, 279.833 139.996 C 275.652 139.991, 250.274 138.216, 243.250 137.438 L 238 136.856 238 160.554 M 308.500 156.113 C 301.350 162.853, 286.725 176.759, 276 187.015 C 265.275 197.272, 252.334 209.452, 247.243 214.082 L 237.986 222.500 238.243 228 C 238.716 238.119, 235.371 240.760, 298.500 180.430 C 308.950 170.443, 321.212 159.020, 325.750 155.045 C 333.909 147.897, 335.752 145, 332.140 145 C 331.116 145, 328.304 144.743, 325.890 144.429 L 321.500 143.858 308.500 156.113 M 352 166.573 L 352 186.145 354.750 183.985 C 356.262 182.797, 360.453 179.052, 364.062 175.663 C 367.671 172.273, 375.441 165.225, 381.330 160 L 392.036 150.500 386.268 149.851 C 383.096 149.494, 376.139 148.706, 370.808 148.101 C 365.478 147.495, 359.066 147, 356.558 147 L 352 147 352 166.573 M 419.405 165.629 C 411.747 172.708, 403.236 180.489, 400.491 182.920 C 393.239 189.343, 384.481 197.475, 367.250 213.783 L 352 228.216 352 234.608 L 352 241 358.514 241 L 365.029 241 385.150 222.250 C 396.217 211.938, 411.623 197.689, 419.386 190.586 C 448.920 163.564, 448 164.561, 448 159.562 C 448 157.118, 447.626 154.887, 447.168 154.604 C 446.711 154.321, 443.410 153.790, 439.832 153.424 L 433.328 152.757 419.405 165.629 M 466 176.493 L 466 197.216 475.038 188.858 C 480.009 184.261, 486.694 178.250, 489.895 175.500 C 501.991 165.107, 507 160.548, 507 159.932 C 507 159.582, 500.137 158.765, 491.750 158.116 C 483.363 157.468, 474.137 156.675, 471.250 156.354 L 466 155.770 466 176.493 M 544 167.248 C 541.525 169.637, 532.975 177.271, 525 184.213 C 517.025 191.155, 508.157 199.010, 505.293 201.667 C 502.429 204.325, 492.402 213.475, 483.011 222 L 465.937 237.500 466.218 242.500 C 466.497 247.439, 466.542 247.503, 470 247.750 C 473.215 247.980, 474.836 246.818, 489.882 233.502 C 498.892 225.528, 509.471 215.965, 513.391 212.252 C 520.642 205.382, 526.658 200.065, 549.289 180.525 C 559.881 171.380, 562 169.088, 562 166.775 C 562 164.219, 561.694 164, 558.125 164 C 555.994 164, 552.956 163.753, 551.375 163.452 C 548.973 162.994, 547.759 163.618, 544 167.248 M 320.274 182.243 C 313.248 188.977, 303.225 198.587, 298 203.599 C 276.154 224.555, 268.778 231.468, 266.698 232.935 C 264.664 234.371, 266.331 234.614, 289 236.181 C 302.475 237.112, 318.113 238.194, 323.750 238.584 L 334 239.295 334 204.647 C 334 185.591, 333.786 170, 333.524 170 C 333.263 170, 327.300 175.509, 320.274 182.243 M 432.936 199.775 C 419.431 212.445, 400.812 229.696, 391.730 237.955 C 389.106 240.340, 387.137 242.471, 387.355 242.688 C 387.573 242.906, 396.919 243.498, 408.125 244.003 C 419.331 244.509, 432.887 245.214, 438.250 245.569 L 448 246.216 448 216.608 C 448 200.324, 447.663 187.011, 447.250 187.025 C 446.837 187.038, 440.396 192.776, 432.936 199.775 M 557.452 193.775 C 555.226 195.824, 551.401 199.280, 548.952 201.456 C 546.503 203.632, 539.325 210.175, 533 215.998 C 526.675 221.820, 515.718 231.725, 508.652 238.009 C 501.585 244.293, 496.185 249.544, 496.652 249.678 C 497.118 249.812, 511.329 250.850, 528.232 251.985 C 545.134 253.120, 559.647 254.311, 560.482 254.631 C 561.820 255.145, 562 251.353, 562 222.607 C 562 204.673, 561.888 190.011, 561.750 190.025 C 561.612 190.039, 559.678 191.726, 557.452 193.775 M 655.916 194.931 C 653.287 197.559, 653 198.493, 653 204.407 C 653 210.186, 653.335 211.343, 655.811 214.114 L 658.621 217.259 673.561 218.112 C 681.777 218.581, 693.675 219.420, 700 219.975 C 706.325 220.531, 714.819 221.081, 718.875 221.197 C 728.463 221.473, 730 219.941, 730 210.112 C 730 202.397, 728.556 199.635, 723.747 198.152 C 720.141 197.040, 705.222 195.542, 682.500 194.011 C 674.250 193.454, 665.549 192.778, 663.166 192.507 C 659.373 192.077, 658.467 192.379, 655.916 194.931 M 681 228 C 679.353 229.647, 679 231.333, 679 237.545 C 679 244.121, 679.301 245.391, 681.337 247.428 C 684.110 250.201, 685.045 250.320, 722.104 252.607 C 755.666 254.678, 754.375 255.053, 754.793 243.100 C 755.053 235.651, 754.845 234.463, 752.917 232.412 C 750.039 229.348, 749.357 229.244, 721 227.509 C 687.474 225.458, 683.493 225.507, 681 228 M 237.665 314.029 C 237.299 348.844, 237.004 399.868, 237.009 427.415 C 237.014 454.962, 236.513 516.561, 235.895 564.303 C 235.278 612.045, 235.040 651.373, 235.366 651.699 C 236.243 652.577, 559.319 641.564, 560.656 640.611 C 560.742 640.550, 561.144 557.244, 561.549 455.487 L 562.286 270.475 536.893 268.768 C 522.927 267.829, 495.525 265.958, 476 264.609 C 456.475 263.260, 428.350 261.677, 413.500 261.090 C 398.650 260.503, 370.525 258.896, 351 257.520 C 282.302 252.679, 273.344 252.104, 255.915 251.419 L 238.331 250.728 237.665 314.029 M 261.976 323.870 C 259.241 326.606, 259 327.413, 259 333.858 C 259 337.714, 259.430 342.001, 259.955 343.383 C 261.960 348.654, 263.015 348.828, 297.772 349.595 L 330.044 350.307 332.522 347.979 C 334.798 345.841, 335 344.929, 335 336.780 C 335 328.807, 334.763 327.672, 332.655 325.564 C 330.037 322.946, 326.760 322.663, 285.226 321.474 L 264.953 320.893 261.976 323.870 M 278.250 356.936 C 276.243 358.846, 276 360.047, 276 368.039 C 276 375.628, 276.302 377.302, 277.975 378.975 C 280.707 381.707, 281.517 381.800, 308 382.442 C 320.925 382.755, 334.670 383.292, 338.546 383.634 C 345.009 384.204, 345.814 384.059, 348.291 381.878 C 350.841 379.631, 350.997 378.983, 351.112 370.140 C 351.224 361.529, 351.044 360.594, 348.867 358.470 C 346.522 356.182, 346.188 356.154, 313.500 355.477 C 280.682 354.798, 280.488 354.806, 278.250 356.936 M 84.635 397.073 C 82.124 399.047, 82 399.586, 82 408.484 C 82 417.684, 82.046 417.861, 85.077 420.411 L 88.153 423 118.827 423.158 C 135.697 423.246, 150.400 423.244, 151.500 423.154 C 152.600 423.065, 154.512 421.843, 155.750 420.440 C 157.698 418.231, 158 416.774, 158 409.581 C 158 402.073, 157.761 401.034, 155.523 398.796 C 153.092 396.364, 152.663 396.308, 131.862 395.660 C 94.306 394.490, 87.665 394.689, 84.635 397.073 M 54.401 432.902 C 45.398 433.785, 45 434.359, 45 446.467 C 45 455.101, 45.284 456.947, 46.829 458.345 C 48.435 459.799, 51.748 459.989, 74.079 459.913 C 106.357 459.802, 116.342 459.086, 118.718 456.711 C 120.076 455.354, 120.584 452.920, 120.852 446.489 C 121.196 438.227, 121.139 437.986, 118.179 435.025 L 115.154 432 87.827 432.152 C 72.797 432.236, 57.756 432.574, 54.401 432.902 M 85.774 470.744 C 82.398 472.837, 81.995 473.860, 81.296 482.087 C 80.661 489.574, 82.007 494.899, 85.009 496.774 C 86.580 497.754, 94.201 497.882, 119.583 497.354 C 159.422 496.524, 157 497.417, 157 483.562 C 157 475.675, 156.686 473.871, 154.927 471.635 L 152.855 469 120.677 469.027 C 92.234 469.050, 88.184 469.249, 85.774 470.744 M 434 499 C 432.296 500.704, 432 502.333, 432 510 C 432 523.903, 429.398 523.001, 467.698 522.386 C 485.189 522.105, 500.481 521.678, 501.680 521.436 C 505.995 520.567, 507 518.384, 507 509.883 C 507 502.750, 506.741 501.650, 504.545 499.455 L 502.091 497 469.045 497 C 437.333 497, 435.919 497.081, 434 499 M 428.500 526.968 C 413.650 527.261, 400.700 527.890, 399.722 528.368 C 396.816 529.786, 396 532.445, 396 540.500 C 396 548.855, 396.978 551.671, 400.311 552.909 C 401.515 553.357, 416.977 553.448, 434.671 553.111 L 466.842 552.500 469.421 550.076 C 471.788 547.851, 472 546.974, 472 539.415 C 472 531.445, 471.900 531.094, 468.923 528.589 C 466.370 526.440, 464.967 526.037, 460.673 526.218 C 457.828 526.338, 443.350 526.676, 428.500 526.968 M 479.646 528.452 C 477.191 530.728, 477 531.508, 477 539.278 C 477 546.829, 477.236 547.873, 479.406 549.911 L 481.811 552.171 513.656 551.914 C 531.170 551.772, 546.747 551.236, 548.271 550.723 C 552.103 549.432, 553 547.236, 553 539.148 C 553 525.588, 554.215 526, 514.196 526 L 482.292 526 479.646 528.452 M 694.402 574.943 C 664.714 575.629, 665.041 575.486, 665.015 587.750 C 664.990 599.667, 663.105 599.087, 699.741 598.438 C 716.659 598.139, 731.988 597.668, 733.806 597.391 C 739.496 596.526, 741 594.055, 741 585.573 C 741 578.740, 740.789 577.979, 738.365 576.073 C 736.108 574.297, 734.496 574.028, 727.115 574.193 C 722.377 574.300, 707.656 574.637, 694.402 574.943 M 613.500 674.044 C 607.450 674.519, 593.725 675.597, 583 676.438 C 572.275 677.280, 541.675 678.654, 515 679.493 C 488.325 680.331, 460.875 681.457, 454 681.994 C 435.868 683.412, 389.024 685.779, 355 686.996 C 290.879 689.290, 272.146 690.089, 238 691.985 C 218.475 693.069, 194.066 694.260, 183.758 694.632 C 173.449 695.004, 164.013 695.808, 162.788 696.419 C 161.562 697.029, 159.534 699.052, 158.280 700.912 C 156.072 704.189, 156 705.016, 156 727.163 L 156 750.029 159.250 753.452 L 162.500 756.874 206.500 754.507 C 230.700 753.204, 253.650 751.842, 257.500 751.479 C 261.350 751.116, 283.400 749.750, 306.500 748.444 C 329.600 747.138, 368.300 744.951, 392.500 743.584 C 416.700 742.216, 441.450 740.627, 447.500 740.052 C 453.550 739.477, 471.550 738.324, 487.500 737.491 C 503.450 736.658, 525.725 735.292, 537 734.454 C 548.275 733.617, 570.775 732.002, 587 730.866 C 635.880 727.443, 632.845 727.857, 636.143 724.166 C 638.929 721.047, 639 720.688, 639 709.638 C 639 703.406, 639.287 694.265, 639.638 689.323 C 640.271 680.403, 640.255 680.317, 637.328 677.041 C 633.820 673.115, 630.558 672.704, 613.500 674.044" stroke="white" stroke-width="2" fill="#151515" fill-rule="evenodd"/></svg>
